<svg width="513" height="440" xmlns="http://www.w3.org/2000/svg" xmlns:xlink="http://www.w3.org/1999/xlink" xml:space="preserve" overflow="hidden"><defs><filter id="fx0" x="-10%" y="-10%" width="120%" height="120%" filterUnits="userSpaceOnUse" primitiveUnits="userSpaceOnUse"><feComponentTransfer color-interpolation-filters="sRGB"><feFuncR type="discrete" tableValues="0 0"/><feFuncG type="discrete" tableValues="0 0"/><feFuncB type="discrete" tableValues="0 0"/><feFuncA type="linear" slope="0.4" intercept="0"/></feComponentTransfer><feGaussianBlur stdDeviation="6.11111 6.11111"/></filter><filter id="fx1" x="-10%" y="-10%" width="120%" height="120%" filterUnits="userSpaceOnUse" primitiveUnits="userSpaceOnUse"><feComponentTransfer color-interpolation-filters="sRGB"><feFuncR type="discrete" tableValues="0 0"/><feFuncG type="discrete" tableValues="0 0"/><feFuncB type="discrete" tableValues="0 0"/><feFuncA type="linear" slope="0.4" intercept="0"/></feComponentTransfer><feGaussianBlur stdDeviation="6.11111 6.11111"/></filter><clipPath id="clip2"><rect x="2515" y="1203" width="513" height="440"/></clipPath><clipPath id="clip3"><rect x="2565" y="1203" width="413" height="273"/></clipPath><clipPath id="clip4"><rect x="2565" y="1203" width="413" height="273"/></clipPath></defs><g clip-path="url(#clip2)" transform="translate(-2515 -1203)"><g clip-path="url(#clip3)"><g clip-path="url(#clip4)"><g><path d="M248.998 290.424 398.075 290.424C405.322 290.424 411.23 296.332 411.23 303.58L411.23 408.963C411.23 416.177 405.322 422.119 398.075 422.119L248.998 422.119C241.785 422.119 235.843 416.211 235.843 408.963L235.843 303.545C235.843 296.332 241.785 290.424 248.998 290.424L248.998 290.424ZM97.7239 221.966 97.7239 259.578 68.9391 259.578 68.9391 221.966 97.7239 221.966 97.7239 221.966ZM342.291 221.966 342.291 259.578 313.507 259.578 313.507 221.966 342.291 221.966 342.291 221.966ZM405.975 0C405.597 0 405.219 0.0343493 404.807 0.0343493L6.38898 0.0343493C6.01114 0.0343493 5.59894 0 5.25545 0 3.95018 0.240445 2.7823 0.893083 1.88921 1.78617 0.721336 2.91969 0 4.53411 0 6.28593L0 82.4384C0 84.1903 0.721336 85.7703 1.88921 86.9382 3.05709 88.1061 4.63716 88.8274 6.38898 88.8274L404.807 88.8274C406.559 88.8274 408.139 88.1061 409.307 86.9382 410.475 85.7703 411.196 84.1903 411.196 82.4384L411.196 6.28593C411.196 4.53411 410.475 2.95404 409.307 1.78617 408.448 0.893083 407.28 0.240445 405.975 0L405.975 0 405.975 0ZM358.332 27.136C368.843 27.136 377.362 35.6546 377.362 46.1655 377.362 56.6764 368.843 65.1951 358.332 65.1951 347.822 65.1951 339.303 56.6764 339.303 46.1655 339.269 35.689 347.787 27.136 358.332 27.136L358.332 27.136ZM405.975 109.368C405.597 109.368 405.219 109.403 404.807 109.403L6.38898 109.403C6.01114 109.403 5.59894 109.368 5.2211 109.368 3.91583 109.609 2.7823 110.261 1.85487 111.155 0.721336 112.288 0 113.902 0 115.62L0 193.868C0 195.62 0.721336 197.2 1.88921 198.368 3.05709 199.535 4.63716 200.257 6.38898 200.257L404.807 200.257C406.559 200.257 408.139 199.535 409.307 198.368 410.475 197.2 411.196 195.62 411.196 193.868L411.196 115.62C411.196 113.868 410.475 112.288 409.307 111.12 408.448 110.227 407.28 109.609 405.975 109.368L405.975 109.368 405.975 109.368ZM27.1703 132.966 43.1771 132.966 43.1771 176.521 27.1703 176.521 27.1703 132.966 27.1703 132.966 27.1703 132.966ZM71.4466 132.966 87.4534 132.966 87.4534 176.521 71.4466 176.521 71.4466 132.966 71.4466 132.966 71.4466 132.966ZM115.723 132.966 131.73 132.966 131.73 176.521 115.723 176.521 115.723 132.966 115.723 132.966 115.723 132.966ZM27.1703 23.6324 43.1771 23.6324 43.1771 65.092 27.1703 65.092 27.1703 23.6324 27.1703 23.6324 27.1703 23.6324ZM71.4466 23.6324 87.4534 23.6324 87.4534 65.092 71.4466 65.092 71.4466 23.6324 71.4466 23.6324 71.4466 23.6324ZM115.723 23.6324 131.73 23.6324 131.73 65.092 115.723 65.092 115.723 23.6324 115.723 23.6324 115.723 23.6324ZM13.1558 290.424 162.232 290.424C169.48 290.424 175.388 296.332 175.388 303.58L175.388 408.963C175.388 416.177 169.48 422.119 162.232 422.119L13.1558 422.119C5.94244 422.119-6.10167e-15 416.211-6.10167e-15 408.963L-6.10167e-15 303.545C0 296.332 5.90809 290.424 13.1558 290.424L13.1558 290.424ZM167.59 327.246 8.34689 327.246 8.34689 410.234C8.34689 411.23 8.72474 412.124 9.41172 412.81 10.0987 413.497 8.51864 412.398 9.51477 412.398L161.442 412.398C162.438 412.398 165.804 413.497 166.491 412.81 167.178 412.124 167.556 411.23 167.556 410.234L167.556 327.246 167.59 327.246 167.59 327.246ZM149.694 305.194C153.267 305.194 156.187 308.114 156.187 311.686 156.187 315.258 153.267 318.178 149.694 318.178 146.122 318.178 143.202 315.258 143.202 311.686 143.202 308.114 146.122 305.194 149.694 305.194L149.694 305.194ZM105.693 305.194C109.265 305.194 112.185 308.114 112.185 311.686 112.185 315.258 109.265 318.178 105.693 318.178 102.121 318.178 99.2009 315.258 99.2009 311.686 99.2009 308.114 102.086 305.194 105.693 305.194L105.693 305.194ZM127.677 305.194C131.249 305.194 134.169 308.114 134.169 311.686 134.169 315.258 131.249 318.178 127.677 318.178 124.104 318.178 121.185 315.258 121.185 311.686 121.185 308.114 124.104 305.194 127.677 305.194L127.677 305.194ZM403.467 327.246 244.224 327.246 244.224 410.234C244.224 411.23 244.602 412.124 245.289 412.81 245.976 413.497 244.396 412.398 245.392 412.398L397.285 412.398C398.281 412.398 401.647 413.497 402.334 412.81 403.021 412.124 403.399 411.23 403.399 410.234L403.399 327.246 403.467 327.246 403.467 327.246ZM385.537 305.194C389.109 305.194 392.029 308.114 392.029 311.686 392.029 315.258 389.109 318.178 385.537 318.178 381.965 318.178 379.045 315.258 379.045 311.686 379.045 308.114 381.965 305.194 385.537 305.194L385.537 305.194ZM341.536 305.194C345.108 305.194 348.028 308.114 348.028 311.686 348.028 315.258 345.108 318.178 341.536 318.178 337.963 318.178 335.044 315.258 335.044 311.686 335.044 308.114 337.963 305.194 341.536 305.194L341.536 305.194ZM363.554 305.194C367.126 305.194 370.046 308.114 370.046 311.686 370.046 315.258 367.126 318.178 363.554 318.178 359.981 318.178 357.061 315.258 357.061 311.686 357.061 308.114 359.947 305.194 363.554 305.194L363.554 305.194Z" fill-rule="evenodd" transform="matrix(1.00294 0 0 1 2565.28 1203)"/></g></g></g><g filter="url(#fx0)" transform="translate(2514 1443)"><g><path d="M98.0461 20.2501 170.954 20.2501C172.65 20.2501 174.025 21.6577 174.025 23.3941L174.025 29.6819 224.328 29.6819C237.954 29.6819 249 40.9918 249 54.9436L249 172.039C249 177.126 244.973 181.25 240.004 181.25L230.991 181.25 230.991 119.19 215.393 103.558 52.377 103.558 36.7792 119.19 36.7792 181.25 28.9964 181.25C24.0279 181.25 20.0002 177.126 20.0002 172.039L20.0002 54.9436C20.0002 40.9918 31.0467 29.6819 44.673 29.6819L94.9755 29.6819 94.9755 23.3941C94.9755 21.6577 96.3503 20.2501 98.0461 20.2501Z" fill="#A6A6A6" fill-rule="evenodd"/></g></g><path d="M2612.05 1477 2684.95 1477C2686.65 1477 2688.02 1478.41 2688.02 1480.14L2688.02 1486.43 2738.33 1486.43C2751.95 1486.43 2763 1497.74 2763 1511.69L2763 1628.79C2763 1633.88 2758.97 1638 2754 1638L2744.99 1638 2744.99 1575.94 2729.39 1560.31 2566.38 1560.31 2550.78 1575.94 2550.78 1638 2543 1638C2538.03 1638 2534 1633.88 2534 1628.79L2534 1511.69C2534 1497.74 2545.05 1486.43 2558.67 1486.43L2608.98 1486.43 2608.98 1480.14C2608.98 1478.41 2610.35 1477 2612.05 1477Z" fill="#A6A6A6" fill-rule="evenodd"/><text fill="#3A3A3A" font-family="Segoe UI Black,Segoe UI Black_MSFontService,sans-serif" font-weight="900" font-size="55" transform="matrix(1 0 0 1 2591.2 1546)">AAS</text><g filter="url(#fx1)" transform="translate(2760 1442)"><g><path d="M98.0458 20.2501 170.954 20.2501C172.65 20.2501 174.024 21.6489 174.024 23.3745L174.024 29.6234 224.328 29.6234C237.954 29.6234 249 40.863 249 54.7281L249 171.096C249 176.152 244.973 180.25 240.004 180.25L230.991 180.25 230.991 118.575 215.393 103.041 52.3768 103.041 36.7789 118.575 36.7789 180.25 28.9961 180.25C24.0277 180.25 20 176.152 20 171.096L20 54.7281C20 40.863 31.0465 29.6234 44.6727 29.6234L94.9752 29.6234 94.9752 23.3745C94.9752 21.6489 96.3501 20.2501 98.0458 20.2501Z" fill="#A6A6A6" fill-rule="evenodd"/></g></g><path d="M2858.05 1476 2930.95 1476C2932.65 1476 2934.02 1477.4 2934.02 1479.12L2934.02 1485.37 2984.33 1485.37C2997.95 1485.37 3009 1496.61 3009 1510.48L3009 1626.85C3009 1631.9 3004.97 1636 3000 1636L2990.99 1636 2990.99 1574.33 2975.39 1558.79 2812.38 1558.79 2796.78 1574.33 2796.78 1636 2789 1636C2784.03 1636 2780 1631.9 2780 1626.85L2780 1510.48C2780 1496.61 2791.05 1485.37 2804.67 1485.37L2854.98 1485.37 2854.98 1479.12C2854.98 1477.4 2856.35 1476 2858.05 1476Z" fill="#A6A6A6" fill-rule="evenodd"/><text fill="#3A3A3A" font-family="Segoe UI Black,Segoe UI Black_MSFontService,sans-serif" font-weight="900" font-size="55" transform="matrix(1 0 0 1 2837.3 1544)">AAS</text></g></svg>