<svg width="2438" height="1841" xmlns="http://www.w3.org/2000/svg" xmlns:xlink="http://www.w3.org/1999/xlink" xml:space="preserve" overflow="hidden"><defs><filter id="fx0" x="-10%" y="-10%" width="120%" height="120%" filterUnits="userSpaceOnUse" primitiveUnits="userSpaceOnUse"><feComponentTransfer color-interpolation-filters="sRGB"><feFuncR type="discrete" tableValues="0 0"/><feFuncG type="discrete" tableValues="0 0"/><feFuncB type="discrete" tableValues="0 0"/><feFuncA type="linear" slope="0.631373" intercept="0"/></feComponentTransfer><feGaussianBlur stdDeviation="6.875 6.875"/></filter><linearGradient x1="2021" y1="616" x2="2021" y2="2031" gradientUnits="userSpaceOnUse" spreadMethod="reflect" id="fill1"><stop offset="0" stop-color="#497491"/><stop offset="0.5" stop-color="#106287"/><stop offset="1" stop-color="#08587C"/></linearGradient><clipPath id="clip2"><rect x="1535" y="1138" width="528" height="273"/></clipPath><clipPath id="clip3"><rect x="1535" y="1138" width="528" height="273"/></clipPath><clipPath id="clip4"><rect x="2020" y="1138" width="528" height="258"/></clipPath><clipPath id="clip5"><rect x="2020" y="1138" width="528" height="258"/></clipPath></defs><g transform="translate(-797 -341)"><g filter="url(#fx0)" transform="translate(969 601)"><g><path d="M724.072 21.875 1379.92 21.875C1395.18 21.875 1407.55 34.2463 1407.55 49.5062L1407.55 104.768 1860.05 104.768C1982.63 104.768 2082 204.171 2082 326.791L2082 1355.92C2082 1400.63 2045.77 1436.87 2001.08 1436.87L1714.58 1436.87 1714.58 942.383 1589.99 817.748 514.008 817.748 389.417 942.383 389.417 1436.87 102.924 1436.87C58.2307 1436.87 22.0001 1400.63 22.0001 1355.92L22.0001 326.791C22.0001 204.171 121.369 104.768 243.945 104.768L696.45 104.768 696.45 49.5062C696.45 34.2463 708.817 21.875 724.072 21.875Z" fill="#FF0000" fill-rule="evenodd"/></g></g><path d="M1693.07 616 2348.92 616C2364.18 616 2376.55 628.371 2376.55 643.631L2376.55 698.893 2829.05 698.893C2951.63 698.893 3051 798.296 3051 920.916L3051 1950.05C3051 1994.76 3014.77 2031 2970.08 2031L2683.58 2031 2683.58 1536.51 2558.99 1411.87 1483.01 1411.87 1358.42 1536.51 1358.42 2031 1071.92 2031C1027.23 2031 991 1994.76 991 1950.05L991 920.916C991 798.296 1090.37 698.893 1212.95 698.893L1665.45 698.893 1665.45 643.631C1665.45 628.371 1677.82 616 1693.07 616Z" fill="url(#fill1)" fill-rule="evenodd"/><path d="M1106 1209 1139 1209 1139 1374 1106 1374Z" fill="#074B69" fill-rule="evenodd"/><path d="M1249 1242C1255.08 1242 1260 1246.92 1260 1253L1260 1330C1260 1336.08 1255.08 1341 1249 1341L1216 1341C1209.92 1341 1205 1336.08 1205 1330L1205 1253C1205 1246.92 1209.92 1242 1216 1242L1249 1242M1249 1209 1216 1209C1191.7 1209 1172 1228.7 1172 1253L1172 1330C1172 1354.3 1191.7 1374 1216 1374L1249 1374C1273.3 1374 1293 1354.3 1293 1330L1293 1253C1293 1228.7 1273.3 1209 1249 1209Z" fill="#074B69" fill-rule="evenodd"/><path d="M1326 1209 1359 1209 1359 1374 1326 1374Z" fill="#074B69" fill-rule="evenodd"/><path d="M1468.36 1242C1474.39 1242 1479.27 1246.92 1479.27 1253L1479.27 1330C1479.27 1336.08 1474.39 1341 1468.36 1341L1435.64 1341C1429.61 1341 1424.73 1336.08 1424.73 1330L1424.73 1253C1424.73 1246.92 1429.61 1242 1435.64 1242L1468.36 1242M1468.36 1209 1435.64 1209C1411.54 1209 1392 1228.7 1392 1253L1392 1330C1392 1354.3 1411.54 1374 1435.64 1374L1468.36 1374C1492.46 1374 1512 1354.3 1512 1330L1512 1253C1512 1228.7 1492.46 1209 1468.36 1209Z" fill="#074B69" fill-rule="evenodd"/><path d="M1106 1429 1139 1429 1139 1594 1106 1594Z" fill="#074B69" fill-rule="evenodd"/><path d="M1249 1462C1255.08 1462 1260 1466.92 1260 1473L1260 1550C1260 1556.08 1255.08 1561 1249 1561L1216 1561C1209.92 1561 1205 1556.08 1205 1550L1205 1473C1205 1466.92 1209.92 1462 1216 1462L1249 1462M1249 1429 1216 1429C1191.7 1429 1172 1448.7 1172 1473L1172 1550C1172 1574.3 1191.7 1594 1216 1594L1249 1594C1273.3 1594 1293 1574.3 1293 1550L1293 1473C1293 1448.7 1273.3 1429 1249 1429Z" fill="#074B69" fill-rule="evenodd"/><path d="M1326 1429 1359 1429 1359 1594 1326 1594Z" fill="#074B69" fill-rule="evenodd"/><path d="M1435.62 1429 1466 1429 1431.63 1463.84 1427.91 1465.4 1426.37 1469.16 1392 1504 1392 1473.21C1392 1448.79 1411.53 1429 1435.62 1429Z" fill="#074B69" fill-rule="evenodd"/><g><g><g><path d="M1106.42 776.365 1139.36 776.365 1139.36 941.052 1106.42 941.052Z" fill="#074B69"/><path d="M1249.15 809.302C1255.21 809.302 1260.13 814.218 1260.13 820.281L1260.13 897.135C1260.13 903.199 1255.21 908.115 1249.15 908.115L1216.21 908.115C1210.15 908.115 1205.23 903.199 1205.23 897.135L1205.23 820.281C1205.23 814.218 1210.15 809.302 1216.21 809.302L1249.15 809.302M1249.15 776.365 1216.21 776.365C1191.96 776.365 1172.29 796.027 1172.29 820.281L1172.29 897.135C1172.29 921.39 1191.96 941.052 1216.21 941.052L1249.15 941.052C1273.4 941.052 1293.06 921.39 1293.06 897.135L1293.06 820.281C1293.06 796.027 1273.4 776.365 1249.15 776.365Z" fill="#074B69"/><path d="M1326 776.365 1358.94 776.365 1358.94 941.052 1326 941.052Z" fill="#074B69"/><path d="M1468.73 809.302C1474.79 809.302 1479.71 814.218 1479.71 820.281L1479.71 897.135C1479.71 903.199 1474.79 908.115 1468.73 908.115L1435.79 908.115C1429.73 908.115 1424.81 903.199 1424.81 897.135L1424.81 820.281C1424.81 814.218 1429.73 809.302 1435.79 809.302L1468.73 809.302M1468.73 776.365 1435.79 776.365C1411.54 776.365 1391.88 796.027 1391.88 820.281L1391.88 897.135C1391.88 921.39 1411.54 941.052 1435.79 941.052L1468.73 941.052C1492.99 941.052 1512.65 921.39 1512.65 897.135L1512.65 820.281C1512.65 796.027 1492.99 776.365 1468.73 776.365Z" fill="#074B69"/><path d="M1106.42 995.948 1139.36 995.948 1139.36 1160.64 1106.42 1160.64Z" fill="#074B69"/><path d="M1249.15 1028.89C1255.21 1028.89 1260.13 1033.8 1260.13 1039.86L1260.13 1116.72C1260.13 1122.78 1255.21 1127.7 1249.15 1127.7L1216.21 1127.7C1210.15 1127.7 1205.23 1122.78 1205.23 1116.72L1205.23 1039.86C1205.23 1033.8 1210.15 1028.89 1216.21 1028.89L1249.15 1028.89M1249.15 995.948 1216.21 995.948C1191.96 995.948 1172.29 1015.61 1172.29 1039.86L1172.29 1116.72C1172.29 1140.97 1191.96 1160.64 1216.21 1160.64L1249.15 1160.64C1273.4 1160.64 1293.06 1140.97 1293.06 1116.72L1293.06 1039.86C1293.06 1015.61 1273.4 995.948 1249.15 995.948Z" fill="#074B69"/><path d="M1326 995.948 1358.94 995.948 1358.94 1160.64 1326 1160.64Z" fill="#074B69"/><path d="M1468.73 1028.89C1474.79 1028.89 1479.71 1033.8 1479.71 1039.86L1479.71 1116.72C1479.71 1122.78 1474.79 1127.7 1468.73 1127.7L1435.79 1127.7C1429.73 1127.7 1424.81 1122.78 1424.81 1116.72L1424.81 1039.86C1424.81 1033.8 1429.73 1028.89 1435.79 1028.89L1468.73 1028.89M1468.73 995.948 1435.79 995.948C1411.54 995.948 1391.88 1015.61 1391.88 1039.86L1391.88 1116.72C1391.88 1140.97 1411.54 1160.64 1435.79 1160.64L1468.73 1160.64C1492.99 1160.64 1512.65 1140.97 1512.65 1116.72L1512.65 1039.86C1512.65 1015.61 1492.99 995.948 1468.73 995.948Z" fill="#074B69"/></g></g></g><g><g><g><path d="M1596.42 772.364 1629.36 772.364 1629.36 937.052 1596.42 937.052Z" fill="#074B69"/><path d="M1739.15 805.302C1745.21 805.302 1750.13 810.217 1750.13 816.281L1750.13 893.135C1750.13 899.199 1745.21 904.114 1739.15 904.114L1706.21 904.114C1700.15 904.114 1695.23 899.199 1695.23 893.135L1695.23 816.281C1695.23 810.217 1700.15 805.302 1706.21 805.302L1739.15 805.302M1739.15 772.364 1706.21 772.364C1681.96 772.364 1662.29 792.026 1662.29 816.281L1662.29 893.135C1662.29 917.39 1681.96 937.052 1706.21 937.052L1739.15 937.052C1763.4 937.052 1783.06 917.39 1783.06 893.135L1783.06 816.281C1783.06 792.026 1763.4 772.364 1739.15 772.364Z" fill="#074B69"/><path d="M1816 772.364 1848.94 772.364 1848.94 937.052 1816 937.052Z" fill="#074B69"/><path d="M1958.73 805.302C1964.79 805.302 1969.71 810.217 1969.71 816.281L1969.71 893.135C1969.71 899.199 1964.79 904.114 1958.73 904.114L1925.79 904.114C1919.73 904.114 1914.81 899.199 1914.81 893.135L1914.81 816.281C1914.81 810.217 1919.73 805.302 1925.79 805.302L1958.73 805.302M1958.73 772.364 1925.79 772.364C1901.54 772.364 1881.88 792.026 1881.88 816.281L1881.88 893.135C1881.88 917.39 1901.54 937.052 1925.79 937.052L1958.73 937.052C1982.99 937.052 2002.65 917.39 2002.65 893.135L2002.65 816.281C2002.65 792.026 1982.99 772.364 1958.73 772.364Z" fill="#074B69"/><path d="M1596.42 991.948 1629.36 991.948 1629.36 1156.64 1596.42 1156.64Z" fill="#074B69"/><path d="M1739.15 1024.89C1745.21 1024.89 1750.13 1029.8 1750.13 1035.86L1750.13 1112.72C1750.13 1118.78 1745.21 1123.7 1739.15 1123.7L1706.21 1123.7C1700.15 1123.7 1695.23 1118.78 1695.23 1112.72L1695.23 1035.86C1695.23 1029.8 1700.15 1024.89 1706.21 1024.89L1739.15 1024.89M1739.15 991.948 1706.21 991.948C1681.96 991.948 1662.29 1011.61 1662.29 1035.86L1662.29 1112.72C1662.29 1136.97 1681.96 1156.64 1706.21 1156.64L1739.15 1156.64C1763.4 1156.64 1783.06 1136.97 1783.06 1112.72L1783.06 1035.86C1783.06 1011.61 1763.4 991.948 1739.15 991.948Z" fill="#074B69"/><path d="M1816 991.948 1848.94 991.948 1848.94 1156.64 1816 1156.64Z" fill="#074B69"/><path d="M1958.73 1024.89C1964.79 1024.89 1969.71 1029.8 1969.71 1035.86L1969.71 1112.72C1969.71 1118.78 1964.79 1123.7 1958.73 1123.7L1925.79 1123.7C1919.73 1123.7 1914.81 1118.78 1914.81 1112.72L1914.81 1035.86C1914.81 1029.8 1919.73 1024.89 1925.79 1024.89L1958.73 1024.89M1958.73 991.948 1925.79 991.948C1901.54 991.948 1881.88 1011.61 1881.88 1035.86L1881.88 1112.72C1881.88 1136.97 1901.54 1156.64 1925.79 1156.64L1958.73 1156.64C1982.99 1156.64 2002.65 1136.97 2002.65 1112.72L2002.65 1035.86C2002.65 1011.61 1982.99 991.948 1958.73 991.948Z" fill="#074B69"/></g></g></g><g clip-path="url(#clip2)"><g clip-path="url(#clip3)"><g><path d="M60.4183 71.3646 93.3559 71.3646 93.3559 236.052 60.4184 236.052Z" fill="#074B69" transform="matrix(1 0 0 1.00068 1536 1138)"/><path d="M203.148 104.302C209.211 104.302 214.127 109.217 214.127 115.281L214.127 192.135C214.127 198.199 209.211 203.115 203.148 203.115L170.21 203.115C164.146 203.115 159.231 198.199 159.231 192.135L159.231 115.281C159.231 109.217 164.146 104.302 170.21 104.302L203.148 104.302M203.148 71.3646 170.21 71.3646C145.955 71.3646 126.293 91.0266 126.293 115.281L126.293 192.135C126.293 216.39 145.955 236.052 170.21 236.052L203.148 236.052C227.402 236.052 247.064 216.39 247.064 192.135L247.064 115.281C247.064 91.0266 227.402 71.3646 203.148 71.3646Z" fill="#074B69" transform="matrix(1 0 0 1.00068 1536 1138)"/><path d="M280.002 71.3646 312.939 71.3646 312.939 236.052 280.002 236.052Z" fill="#074B69" transform="matrix(1 0 0 1.00068 1536 1138)"/><path d="M422.731 104.302C428.795 104.302 433.71 109.217 433.71 115.281L433.71 192.135C433.71 198.199 428.795 203.115 422.731 203.115L389.793 203.115C383.73 203.115 378.814 198.199 378.814 192.135L378.814 115.281C378.814 109.217 383.73 104.302 389.793 104.302L422.731 104.302M422.731 71.3646 389.793 71.3646C365.539 71.3646 345.877 91.0266 345.877 115.281L345.877 192.135C345.877 216.39 365.539 236.052 389.793 236.052L422.731 236.052C446.985 236.052 466.647 216.39 466.647 192.135L466.647 115.281C466.647 91.0266 446.985 71.3646 422.731 71.3646Z" fill="#074B69" transform="matrix(1 0 0 1.00068 1536 1138)"/><path d="M60.4183 290.948 93.3559 290.948 93.3559 455.635 60.4184 455.635Z" fill="#074B69" transform="matrix(1 0 0 1.00068 1536 1138)"/><path d="M203.148 323.885C209.211 323.885 214.127 328.801 214.127 334.865L214.127 411.719C214.127 417.783 209.211 422.698 203.148 422.698L170.21 422.698C164.146 422.698 159.231 417.783 159.231 411.719L159.231 334.865C159.231 328.801 164.146 323.885 170.21 323.885L203.148 323.885M203.148 290.948 170.21 290.948C145.955 290.948 126.293 310.61 126.293 334.865L126.293 411.719C126.293 435.973 145.955 455.635 170.21 455.635L203.148 455.635C227.402 455.635 247.064 435.973 247.064 411.719L247.064 334.865C247.064 310.61 227.402 290.948 203.148 290.948Z" fill="#074B69" transform="matrix(1 0 0 1.00068 1536 1138)"/><path d="M280.002 290.948 312.939 290.948 312.939 455.635 280.002 455.635Z" fill="#074B69" transform="matrix(1 0 0 1.00068 1536 1138)"/><path d="M422.731 323.885C428.795 323.885 433.71 328.801 433.71 334.865L433.71 411.719C433.71 417.783 428.795 422.698 422.731 422.698L389.793 422.698C383.73 422.698 378.814 417.783 378.814 411.719L378.814 334.865C378.814 328.801 383.73 323.885 389.793 323.885L422.731 323.885M422.731 290.948 389.793 290.948C365.539 290.948 345.877 310.61 345.877 334.865L345.877 411.719C345.877 435.973 365.539 455.635 389.793 455.635L422.731 455.635C446.985 455.635 466.647 435.973 466.647 411.719L466.647 334.865C466.647 310.61 446.985 290.948 422.731 290.948Z" fill="#074B69" transform="matrix(1 0 0 1.00068 1536 1138)"/></g></g></g><g clip-path="url(#clip4)"><g clip-path="url(#clip5)"><g><path d="M60.3657 71.3024 93.2745 71.3024 93.2745 235.846 60.3657 235.846Z" fill="#074B69" transform="matrix(1.00087 0 0 1 2021 1138)"/><path d="M202.971 104.211C209.029 104.211 213.94 109.122 213.94 115.181L213.94 191.968C213.94 198.027 209.029 202.938 202.971 202.938L170.062 202.938C164.003 202.938 159.092 198.027 159.092 191.968L159.092 115.181C159.092 109.122 164.003 104.211 170.062 104.211L202.971 104.211M202.971 71.3024 170.062 71.3024C145.828 71.3024 126.183 90.9473 126.183 115.181L126.183 191.968C126.183 216.202 145.828 235.846 170.062 235.846L202.971 235.846C227.204 235.846 246.849 216.202 246.849 191.968L246.849 115.181C246.849 90.9473 227.204 71.3024 202.971 71.3024Z" fill="#074B69" transform="matrix(1.00087 0 0 1 2021 1138)"/><path d="M279.758 71.3024 312.667 71.3024 312.667 235.846 279.758 235.846Z" fill="#074B69" transform="matrix(1.00087 0 0 1 2021 1138)"/><path d="M422.363 104.211C428.421 104.211 433.332 109.122 433.332 115.181L433.332 191.968C433.332 198.027 428.421 202.938 422.363 202.938L389.454 202.938C383.395 202.938 378.484 198.027 378.484 191.968L378.484 115.181C378.484 109.122 383.395 104.211 389.454 104.211L422.363 104.211M422.363 71.3024 389.454 71.3024C365.22 71.3024 345.575 90.9473 345.575 115.181L345.575 191.968C345.575 216.202 365.22 235.846 389.454 235.846L422.363 235.846C446.596 235.846 466.241 216.202 466.241 191.968L466.241 115.181C466.241 90.9473 446.596 71.3024 422.363 71.3024Z" fill="#074B69" transform="matrix(1.00087 0 0 1 2021 1138)"/><path d="M60.3657 290.694 93.2745 290.694 93.2745 455.239 60.3657 455.239Z" fill="#074B69" transform="matrix(1.00087 0 0 1 2021 1138)"/><path d="M202.971 323.603C209.029 323.603 213.94 328.514 213.94 334.573L213.94 411.36C213.94 417.419 209.029 422.33 202.971 422.33L170.062 422.33C164.003 422.33 159.092 417.419 159.092 411.36L159.092 334.573C159.092 328.514 164.003 323.603 170.062 323.603L202.971 323.603M202.971 290.694 170.062 290.694C145.828 290.694 126.183 310.339 126.183 334.573L126.183 411.36C126.183 435.594 145.828 455.239 170.062 455.239L202.971 455.239C227.204 455.239 246.849 435.594 246.849 411.36L246.849 334.573C246.849 310.339 227.204 290.694 202.971 290.694Z" fill="#074B69" transform="matrix(1.00087 0 0 1 2021 1138)"/><path d="M279.758 290.694 312.667 290.694 312.667 455.239 279.758 455.239Z" fill="#074B69" transform="matrix(1.00087 0 0 1 2021 1138)"/><path d="M422.363 323.603C428.421 323.603 433.332 328.514 433.332 334.573L433.332 411.36C433.332 417.419 428.421 422.33 422.363 422.33L389.454 422.33C383.395 422.33 378.484 417.419 378.484 411.36L378.484 334.573C378.484 328.514 383.395 323.603 389.454 323.603L422.363 323.603M422.363 290.694 389.454 290.694C365.22 290.694 345.575 310.339 345.575 334.573L345.575 411.36C345.575 435.594 365.22 455.239 389.454 455.239L422.363 455.239C446.596 455.239 466.241 435.594 466.241 411.36L466.241 334.573C466.241 310.339 446.596 290.694 422.363 290.694Z" fill="#074B69" transform="matrix(1.00087 0 0 1 2021 1138)"/></g></g></g><g><g><g><path d="M2081.42 776.365 2114.36 776.365 2114.36 941.052 2081.42 941.052Z" fill="#074B69"/><path d="M2224.15 809.302C2230.21 809.302 2235.13 814.218 2235.13 820.281L2235.13 897.135C2235.13 903.199 2230.21 908.115 2224.15 908.115L2191.21 908.115C2185.15 908.115 2180.23 903.199 2180.23 897.135L2180.23 820.281C2180.23 814.218 2185.15 809.302 2191.21 809.302L2224.15 809.302M2224.15 776.365 2191.21 776.365C2166.96 776.365 2147.29 796.027 2147.29 820.281L2147.29 897.135C2147.29 921.39 2166.96 941.052 2191.21 941.052L2224.15 941.052C2248.4 941.052 2268.06 921.39 2268.06 897.135L2268.06 820.281C2268.06 796.027 2248.4 776.365 2224.15 776.365Z" fill="#074B69"/><path d="M2301 776.365 2333.94 776.365 2333.94 941.052 2301 941.052Z" fill="#074B69"/><path d="M2443.73 809.302C2449.79 809.302 2454.71 814.218 2454.71 820.281L2454.71 897.135C2454.71 903.199 2449.79 908.115 2443.73 908.115L2410.79 908.115C2404.73 908.115 2399.81 903.199 2399.81 897.135L2399.81 820.281C2399.81 814.218 2404.73 809.302 2410.79 809.302L2443.73 809.302M2443.73 776.365 2410.79 776.365C2386.54 776.365 2366.88 796.027 2366.88 820.281L2366.88 897.135C2366.88 921.39 2386.54 941.052 2410.79 941.052L2443.73 941.052C2467.99 941.052 2487.65 921.39 2487.65 897.135L2487.65 820.281C2487.65 796.027 2467.99 776.365 2443.73 776.365Z" fill="#074B69"/><path d="M2081.42 995.948 2114.36 995.948 2114.36 1160.64 2081.42 1160.64Z" fill="#074B69"/><path d="M2224.15 1028.89C2230.21 1028.89 2235.13 1033.8 2235.13 1039.86L2235.13 1116.72C2235.13 1122.78 2230.21 1127.7 2224.15 1127.7L2191.21 1127.7C2185.15 1127.7 2180.23 1122.78 2180.23 1116.72L2180.23 1039.86C2180.23 1033.8 2185.15 1028.89 2191.21 1028.89L2224.15 1028.89M2224.15 995.948 2191.21 995.948C2166.96 995.948 2147.29 1015.61 2147.29 1039.86L2147.29 1116.72C2147.29 1140.97 2166.96 1160.64 2191.21 1160.64L2224.15 1160.64C2248.4 1160.64 2268.06 1140.97 2268.06 1116.72L2268.06 1039.86C2268.06 1015.61 2248.4 995.948 2224.15 995.948Z" fill="#074B69"/><path d="M2301 995.948 2333.94 995.948 2333.94 1160.64 2301 1160.64Z" fill="#074B69"/><path d="M2443.73 1028.89C2449.79 1028.89 2454.71 1033.8 2454.71 1039.86L2454.71 1116.72C2454.71 1122.78 2449.79 1127.7 2443.73 1127.7L2410.79 1127.7C2404.73 1127.7 2399.81 1122.78 2399.81 1116.72L2399.81 1039.86C2399.81 1033.8 2404.73 1028.89 2410.79 1028.89L2443.73 1028.89M2443.73 995.948 2410.79 995.948C2386.54 995.948 2366.88 1015.61 2366.88 1039.86L2366.88 1116.72C2366.88 1140.97 2386.54 1160.64 2410.79 1160.64L2443.73 1160.64C2467.99 1160.64 2487.65 1140.97 2487.65 1116.72L2487.65 1039.86C2487.65 1015.61 2467.99 995.948 2443.73 995.948Z" fill="#074B69"/></g></g></g><g><g><g><path d="M2571.42 772.364 2604.36 772.364 2604.36 937.052 2571.42 937.052Z" fill="#074B69"/><path d="M2714.15 805.302C2720.21 805.302 2725.13 810.217 2725.13 816.281L2725.13 893.135C2725.13 899.199 2720.21 904.114 2714.15 904.114L2681.21 904.114C2675.15 904.114 2670.23 899.199 2670.23 893.135L2670.23 816.281C2670.23 810.217 2675.15 805.302 2681.21 805.302L2714.15 805.302M2714.15 772.364 2681.21 772.364C2656.96 772.364 2637.29 792.026 2637.29 816.281L2637.29 893.135C2637.29 917.39 2656.96 937.052 2681.21 937.052L2714.15 937.052C2738.4 937.052 2758.06 917.39 2758.06 893.135L2758.06 816.281C2758.06 792.026 2738.4 772.364 2714.15 772.364Z" fill="#074B69"/><path d="M2791 772.364 2823.94 772.364 2823.94 937.052 2791 937.052Z" fill="#074B69"/><path d="M2933.73 805.302C2939.79 805.302 2944.71 810.217 2944.71 816.281L2944.71 893.135C2944.71 899.199 2939.79 904.114 2933.73 904.114L2900.79 904.114C2894.73 904.114 2889.81 899.199 2889.81 893.135L2889.81 816.281C2889.81 810.217 2894.73 805.302 2900.79 805.302L2933.73 805.302M2933.73 772.364 2900.79 772.364C2876.54 772.364 2856.88 792.026 2856.88 816.281L2856.88 893.135C2856.88 917.39 2876.54 937.052 2900.79 937.052L2933.73 937.052C2957.99 937.052 2977.65 917.39 2977.65 893.135L2977.65 816.281C2977.65 792.026 2957.99 772.364 2933.73 772.364Z" fill="#074B69"/><path d="M2571.42 991.948 2604.36 991.948 2604.36 1156.64 2571.42 1156.64Z" fill="#074B69"/><path d="M2714.15 1024.89C2720.21 1024.89 2725.13 1029.8 2725.13 1035.86L2725.13 1112.72C2725.13 1118.78 2720.21 1123.7 2714.15 1123.7L2681.21 1123.7C2675.15 1123.7 2670.23 1118.78 2670.23 1112.72L2670.23 1035.86C2670.23 1029.8 2675.15 1024.89 2681.21 1024.89L2714.15 1024.89M2714.15 991.948 2681.21 991.948C2656.96 991.948 2637.29 1011.61 2637.29 1035.86L2637.29 1112.72C2637.29 1136.97 2656.96 1156.64 2681.21 1156.64L2714.15 1156.64C2738.4 1156.64 2758.06 1136.97 2758.06 1112.72L2758.06 1035.86C2758.06 1011.61 2738.4 991.948 2714.15 991.948Z" fill="#074B69"/><path d="M2791 991.948 2823.94 991.948 2823.94 1156.64 2791 1156.64Z" fill="#074B69"/><path d="M2933.73 1024.89C2939.79 1024.89 2944.71 1029.8 2944.71 1035.86L2944.71 1112.72C2944.71 1118.78 2939.79 1123.7 2933.73 1123.7L2900.79 1123.7C2894.73 1123.7 2889.81 1118.78 2889.81 1112.72L2889.81 1035.86C2889.81 1029.8 2894.73 1024.89 2900.79 1024.89L2933.73 1024.89M2933.73 991.948 2900.79 991.948C2876.54 991.948 2856.88 1011.61 2856.88 1035.86L2856.88 1112.72C2856.88 1136.97 2876.54 1156.64 2900.79 1156.64L2933.73 1156.64C2957.99 1156.64 2977.65 1136.97 2977.65 1112.72L2977.65 1035.86C2977.65 1011.61 2957.99 991.948 2933.73 991.948Z" fill="#074B69"/></g></g></g><path d="M2572 1209 2605 1209 2605 1374 2572 1374Z" fill="#074B69" fill-rule="evenodd"/><path d="M2714 1242C2720.08 1242 2725 1246.92 2725 1253L2725 1330C2725 1336.08 2720.08 1341 2714 1341L2681 1341C2674.92 1341 2670 1336.08 2670 1330L2670 1253C2670 1246.92 2674.92 1242 2681 1242L2714 1242M2714 1209 2681 1209C2656.7 1209 2637 1228.7 2637 1253L2637 1330C2637 1354.3 2656.7 1374 2681 1374L2714 1374C2738.3 1374 2758 1354.3 2758 1330L2758 1253C2758 1228.7 2738.3 1209 2714 1209Z" fill="#074B69" fill-rule="evenodd"/><path d="M2791 1209 2824 1209 2824 1374 2791 1374Z" fill="#074B69" fill-rule="evenodd"/><path d="M2934 1242C2940.08 1242 2945 1246.92 2945 1253L2945 1330C2945 1336.08 2940.08 1341 2934 1341L2901 1341C2894.92 1341 2890 1336.08 2890 1330L2890 1253C2890 1246.92 2894.92 1242 2901 1242L2934 1242M2934 1209 2901 1209C2876.7 1209 2857 1228.7 2857 1253L2857 1330C2857 1354.3 2876.7 1374 2901 1374L2934 1374C2958.3 1374 2978 1354.3 2978 1330L2978 1253C2978 1228.7 2958.3 1209 2934 1209Z" fill="#074B69" fill-rule="evenodd"/><path d="M2681 1429 2714 1429C2738.3 1429 2758 1448.7 2758 1473L2758 1550C2758 1574.3 2738.3 1594 2714 1594L2683.41 1594 2683.41 1561 2714 1561C2720.08 1561 2725 1556.08 2725 1550L2725 1473C2725 1466.92 2720.08 1462 2714 1462L2681 1462C2674.92 1462 2670 1466.92 2670 1473L2670 1524.95 2637 1491.95 2637 1473C2637 1448.7 2656.7 1429 2681 1429Z" fill="#074B69" fill-rule="evenodd"/><path d="M2791 1429 2824 1429 2824 1594 2791 1594Z" fill="#074B69" fill-rule="evenodd"/><path d="M2934 1462C2940.08 1462 2945 1466.92 2945 1473L2945 1550C2945 1556.08 2940.08 1561 2934 1561L2901 1561C2894.92 1561 2890 1556.08 2890 1550L2890 1473C2890 1466.92 2894.92 1462 2901 1462L2934 1462M2934 1429 2901 1429C2876.7 1429 2857 1448.7 2857 1473L2857 1550C2857 1574.3 2876.7 1594 2901 1594L2934 1594C2958.3 1594 2978 1574.3 2978 1550L2978 1473C2978 1448.7 2958.3 1429 2934 1429Z" fill="#074B69" fill-rule="evenodd"/><path d="M1106 1641 1139 1641 1139 1806 1106 1806Z" fill="#074B69" fill-rule="evenodd"/><path d="M1249 1674C1255.08 1674 1260 1678.92 1260 1685L1260 1762C1260 1768.08 1255.08 1773 1249 1773L1216 1773C1209.92 1773 1205 1768.08 1205 1762L1205 1685C1205 1678.92 1209.92 1674 1216 1674L1249 1674M1249 1641 1216 1641C1191.7 1641 1172 1660.7 1172 1685L1172 1762C1172 1786.3 1191.7 1806 1216 1806L1249 1806C1273.3 1806 1293 1786.3 1293 1762L1293 1685C1293 1660.7 1273.3 1641 1249 1641Z" fill="#074B69" fill-rule="evenodd"/><path d="M1326 1641 1359 1641 1359 1806 1326 1806Z" fill="#074B69" fill-rule="evenodd"/><path d="M1106 1861 1139 1861 1139 2026 1106 2026Z" fill="#074B69" fill-rule="evenodd"/><path d="M1249 1894C1255.08 1894 1260 1898.92 1260 1905L1260 1982C1260 1988.08 1255.08 1993 1249 1993L1216 1993C1209.92 1993 1205 1988.08 1205 1982L1205 1905C1205 1898.92 1209.92 1894 1216 1894L1249 1894M1249 1861 1216 1861C1191.7 1861 1172 1880.7 1172 1905L1172 1982C1172 2006.3 1191.7 2026 1216 2026L1249 2026C1273.3 2026 1293 2006.3 1293 1982L1293 1905C1293 1880.7 1273.3 1861 1249 1861Z" fill="#074B69" fill-rule="evenodd"/><path d="M1326 1861 1359 1861 1359 2026 1326 2026Z" fill="#074B69" fill-rule="evenodd"/><path d="M2684 1642 2714.48 1642C2738.52 1642 2758 1661.7 2758 1686L2758 1763C2758 1787.3 2738.52 1807 2714.48 1807L2684 1807 2684 1774 2714.48 1774C2720.49 1774 2725.36 1769.08 2725.36 1763L2725.36 1686C2725.36 1679.92 2720.49 1675 2714.48 1675L2684 1675Z" fill="#074B69" fill-rule="evenodd"/><path d="M2791 1642 2824 1642 2824 1807 2791 1807Z" fill="#074B69" fill-rule="evenodd"/><path d="M2934 1675C2940.08 1675 2945 1679.92 2945 1686L2945 1763C2945 1769.08 2940.08 1774 2934 1774L2901 1774C2894.92 1774 2890 1769.08 2890 1763L2890 1686C2890 1679.92 2894.92 1675 2901 1675L2934 1675M2934 1642 2901 1642C2876.7 1642 2857 1661.7 2857 1686L2857 1763C2857 1787.3 2876.7 1807 2901 1807L2934 1807C2958.3 1807 2978 1787.3 2978 1763L2978 1686C2978 1661.7 2958.3 1642 2934 1642Z" fill="#074B69" fill-rule="evenodd"/><rect x="1898" y="595" width="247" height="90.0001" fill="#1F89B8"/><rect x="1898" y="502" width="247" height="60.0002" fill="#3CA8D9"/><rect x="1898" y="440" width="247" height="29.9999" fill="#78C6E9"/><rect x="1898" y="387" width="247" height="14.9998" fill="#A2D7F0"/><rect x="1898" y="341" width="246" height="8.99994" fill="#BAE2F4"/><text fill="#FFFFFF" font-family="Segoe UI Black,Segoe UI Black_MSFontService,sans-serif" font-weight="900" font-size="403" transform="matrix(1 0 0 1 1039.01 1177)">SMIA ISM</text><path d="M1651.83 1486.5 2406.17 1486.5 2533.5 1613.83 2533.5 2178.5 2533.5 2178.5 1524.5 2178.5 1524.5 2178.5 1524.5 1613.83Z" stroke="#A6A6A6" stroke-width="6.875" stroke-miterlimit="8" fill="#D9D9D9" fill-rule="evenodd"/><g><g><g><path d="M322.181 187.835 339.08 204.333C343.527 208.682 343.613 215.866 339.275 220.323L325.979 233.922C329.826 240.894 332.722 248.349 334.59 256.09L352.019 255.873C358.229 255.798 363.379 260.828 363.455 267.038L363.725 290.656C363.801 296.876 358.781 302.026 352.56 302.091L333.552 302.318C331.335 309.958 328.108 317.268 323.956 324.053L336.43 336.235C340.876 340.584 340.963 347.778 336.624 352.214L320.126 369.124C315.777 373.57 308.582 373.657 304.136 369.308L290.526 356.022C283.557 359.868 276.106 362.765 268.369 364.634L268.575 382.052C268.65 388.273 263.62 393.423 257.41 393.498L233.792 393.769C227.583 393.845 222.433 388.825 222.357 382.604L222.13 363.595C214.493 361.367 207.184 358.136 200.395 353.988L188.213 366.473C183.864 370.92 176.67 371.006 172.223 366.657L155.335 350.159C150.878 345.809 150.791 338.626 155.14 334.169L168.426 320.569C164.596 313.602 161.675 306.137 159.814 298.413L142.385 298.618C136.175 298.694 131.025 293.663 130.95 287.453L130.679 263.836C130.604 257.626 135.623 252.476 141.844 252.401L160.853 252.173C163.082 244.535 166.31 237.224 170.449 230.428L157.975 218.246C153.528 213.897 153.453 206.713 157.791 202.267L174.29 185.368C178.628 180.921 185.822 180.835 190.269 185.184L203.879 198.469C210.847 194.623 218.299 191.727 226.035 189.858L225.83 172.44C225.754 166.23 230.785 161.08 237.006 161.004L260.612 160.723C266.833 160.647 271.972 165.667 272.047 171.888L272.275 190.896C279.919 193.12 287.235 196.346 294.031 200.492L306.202 188.018C310.551 183.572 317.746 183.496 322.192 187.835L322.181 187.835ZM233.901 125.108 233.901 98.7641C225.317 96.4921 217.49 91.9865 211.214 85.7059 202.126 76.5749 196.5 64.0143 196.5 50.1988 196.5 36.405 202.115 23.8553 211.214 14.7567L211.257 14.7135C220.356 5.62573 232.895 1.92179e-15 246.699 1.92179e-15 260.504 1.92179e-15 273.054 5.62573 282.152 14.7135L282.195 14.7567C291.283 23.8553 296.909 36.405 296.909 50.1988 296.909 64.0143 291.283 76.5749 282.174 85.6734 275.545 92.3539 267.163 97.0234 257.994 99.1427L257.994 124.729C250.864 124.761 243.702 124.913 236.573 124.999 235.675 125.01 234.788 125.043 233.901 125.108ZM258.654 455.522C267.688 457.729 275.769 462.414 282.152 468.786L282.195 468.84C291.283 477.938 296.909 490.477 296.909 504.282 296.909 518.087 291.283 530.626 282.195 539.724L282.152 539.778C273.054 548.866 260.504 554.492 246.699 554.492 232.895 554.492 220.356 548.866 211.257 539.778L211.214 539.724C202.115 530.626 196.5 518.087 196.5 504.282 196.5 490.477 202.115 477.938 211.214 468.84L211.257 468.786C217.597 462.457 225.613 457.805 234.561 455.565L234.561 429.773C242.307 429.763 250.085 429.579 257.821 429.492L258.654 429.471 258.654 455.522ZM265.167 485.771C260.482 481.087 253.948 478.176 246.699 478.176 239.461 478.176 232.927 481.087 228.242 485.771L228.188 485.814C223.504 490.51 220.594 497.033 220.594 504.282 220.594 511.531 223.504 518.054 228.188 522.75L228.242 522.793C232.927 527.477 239.461 530.388 246.699 530.388 253.948 530.388 260.482 527.477 265.167 522.793L265.21 522.75C269.905 518.054 272.816 511.531 272.816 504.282 272.816 497.033 269.905 490.51 265.21 485.814L265.167 485.771ZM265.167 31.6988C260.482 27.0035 253.948 24.0933 246.699 24.0933 239.461 24.0933 232.927 27.0035 228.242 31.6988L228.188 31.7421C223.504 36.4266 220.594 42.9611 220.594 50.1988 220.594 57.4474 223.504 63.9819 228.188 68.6772 232.959 73.3942 239.494 76.3152 246.699 76.3152 253.915 76.3152 260.45 73.3942 265.167 68.6772 269.905 63.9819 272.816 57.4474 272.816 50.1988 272.816 42.9611 269.905 36.4266 265.21 31.7421L265.167 31.6988ZM444.206 340.422C458.01 340.422 470.56 346.047 479.659 355.135L479.702 355.178C488.79 364.277 494.415 376.827 494.415 390.631 494.415 404.436 488.79 416.975 479.702 426.073L479.659 426.128C470.56 435.215 458.01 440.83 444.206 440.83 430.401 440.83 417.84 435.204 408.742 426.095 399.633 417.04 393.996 404.479 393.996 390.631 393.996 385.568 394.753 380.678 396.149 376.069L372.326 362.308C374.728 356.401 375.896 350.083 375.821 343.776 375.799 341.244 375.561 338.723 375.139 336.235L408.407 355.438 408.709 355.135C417.786 346.058 430.358 340.422 444.206 340.422ZM462.673 372.121C457.989 367.425 451.454 364.515 444.206 364.515 437 364.515 430.455 367.447 425.738 372.164 420.837 377.059 418.088 383.704 418.1 390.631 418.1 397.847 421.021 404.371 425.738 409.088 430.433 413.827 436.968 416.737 444.206 416.737 451.454 416.737 457.989 413.827 462.673 409.142L462.717 409.088C467.412 404.404 470.322 397.88 470.322 390.631 470.322 383.383 467.412 376.848 462.717 372.164L462.673 372.121ZM50.2097 340.422C63.7763 340.422 76.1097 345.831 85.1433 354.583L116.247 336.614C116.02 338.615 115.923 340.616 115.944 342.629 116.009 349.282 117.48 355.903 120.304 362.027L97.9202 374.955C99.543 379.888 100.419 385.157 100.419 390.631 100.419 404.479 94.7828 417.04 85.7059 426.128 76.5749 435.204 64.0143 440.83 50.2097 440.83 36.405 440.83 23.8553 435.215 14.7567 426.128L14.7135 426.073C5.62573 416.975 2.49832e-14 404.436 2.49832e-14 390.631 2.49832e-14 376.816 5.62573 364.266 14.7351 355.157 23.7904 346.058 36.3509 340.422 50.2097 340.422ZM68.6772 372.164C63.7822 367.262 57.1373 364.51 50.2097 364.515 42.9936 364.515 36.4591 367.447 31.7421 372.164 27.0035 376.848 24.0933 383.383 24.0933 390.631 24.0933 397.88 27.0035 404.404 31.6988 409.088L31.7421 409.142C36.4266 413.827 42.9611 416.737 50.2097 416.737 57.4474 416.737 63.9819 413.827 68.6772 409.142 73.3942 404.371 76.3152 397.847 76.3152 390.631 76.3152 383.415 73.3942 376.881 68.6772 372.164ZM444.206 113.38C458.064 113.38 470.625 119.006 479.713 128.094 488.79 137.171 494.415 149.731 494.415 163.59 494.415 177.394 488.79 189.944 479.702 199.043L479.659 199.086C470.56 208.174 458.01 213.799 444.206 213.799 430.358 213.799 417.786 208.163 408.709 199.086L408.071 198.426 378.374 215.595C378.46 214.351 378.493 213.107 378.471 211.874 378.393 204.536 376.619 197.316 373.289 190.777L396.008 177.643C394.71 173.186 393.996 168.469 393.996 163.59 393.996 149.785 399.622 137.246 408.709 128.148L408.764 128.094C417.862 119.006 430.401 113.38 444.206 113.38ZM462.684 145.122C457.784 140.221 451.135 137.472 444.206 137.484 436.957 137.484 430.433 140.394 425.738 145.079L425.695 145.122C421.01 149.818 418.1 156.341 418.1 163.59 418.1 170.795 421.021 177.34 425.738 182.057 430.634 186.959 437.278 189.712 444.206 189.706 451.454 189.706 457.989 186.796 462.673 182.101L462.717 182.057C467.412 177.373 470.322 170.838 470.322 163.59 470.322 156.374 467.39 149.828 462.684 145.122ZM50.2097 113.38C64.0143 113.38 76.5532 119.006 85.6518 128.094L85.7059 128.148C94.7936 137.246 100.419 149.785 100.419 163.59 100.419 167.658 99.9217 171.617 99.0129 175.404L123.052 189.977C119.336 197.933 117.894 206.762 118.887 215.487L87.9237 196.717C87.2097 197.528 86.4632 198.329 85.7059 199.086 76.629 208.163 64.0576 213.799 50.2097 213.799 36.3509 213.799 23.7904 208.163 14.7135 199.086 5.62573 189.955 0 177.405 0 163.59 0 149.785 5.62573 137.246 14.7135 128.148L14.7567 128.094C23.8553 119.006 36.405 113.38 50.2097 113.38ZM68.6772 145.079C63.9819 140.394 57.4582 137.484 50.2097 137.484 42.9611 137.484 36.4266 140.394 31.7421 145.079L31.6988 145.122C27.0035 149.818 24.0933 156.341 24.0933 163.59 24.0933 170.838 27.0035 177.373 31.6988 182.057 36.4591 186.774 42.9936 189.706 50.2097 189.706 57.4149 189.706 63.9603 186.774 68.6772 182.057 73.5762 177.161 76.3245 170.516 76.3152 163.59 76.3152 156.341 73.405 149.818 68.7205 145.122L68.6772 145.079ZM246.645 230.817C272.285 230.514 293.328 251.059 293.631 276.689 293.945 302.329 273.389 323.371 247.749 323.674 222.119 323.988 201.077 303.433 200.774 277.803 200.471 252.163 221.016 231.12 246.645 230.817Z" fill-rule="evenodd" transform="matrix(1.00118 0 0 1 1768 1557.25)"/></g></g></g><path d="M2684 1836 2714.48 1836C2738.52 1836 2758 1855.58 2758 1879.73L2758 1956.27C2758 1980.42 2738.52 2000 2714.48 2000L2684 2000 2684 1967.2 2714.48 1967.2C2720.49 1967.2 2725.36 1962.31 2725.36 1956.27L2725.36 1879.73C2725.36 1873.69 2720.49 1868.8 2714.48 1868.8L2684 1868.8Z" fill="#074B69" fill-rule="evenodd"/><path d="M2791 1836 2824 1836 2824 2000 2791 2000Z" fill="#074B69" fill-rule="evenodd"/><path d="M2934 1868.8C2940.08 1868.8 2945 1873.69 2945 1879.73L2945 1956.27C2945 1962.31 2940.08 1967.2 2934 1967.2L2901 1967.2C2894.92 1967.2 2890 1962.31 2890 1956.27L2890 1879.73C2890 1873.69 2894.92 1868.8 2901 1868.8L2934 1868.8M2934 1836 2901 1836C2876.7 1836 2857 1855.58 2857 1879.73L2857 1956.27C2857 1980.42 2876.7 2000 2901 2000L2934 2000C2958.3 2000 2978 1980.42 2978 1956.27L2978 1879.73C2978 1855.58 2958.3 1836 2934 1836Z" fill="#074B69" fill-rule="evenodd"/></g></svg>