<svg width="2429" height="1983" xmlns="http://www.w3.org/2000/svg" xmlns:xlink="http://www.w3.org/1999/xlink" xml:space="preserve" overflow="hidden"><defs><filter id="fx0" x="-10%" y="-10%" width="120%" height="120%" filterUnits="userSpaceOnUse" primitiveUnits="userSpaceOnUse"><feComponentTransfer color-interpolation-filters="sRGB"><feFuncR type="discrete" tableValues="0 0"/><feFuncG type="discrete" tableValues="0 0"/><feFuncB type="discrete" tableValues="0 0"/><feFuncA type="linear" slope="0.4" intercept="0"/></feComponentTransfer><feGaussianBlur stdDeviation="6.11111 6.11111"/></filter><clipPath id="clip1"><rect x="1478" y="111" width="2429" height="1983"/></clipPath><linearGradient x1="2692.5" y1="446" x2="2692.5" y2="2089" gradientUnits="userSpaceOnUse" spreadMethod="reflect" id="fill2"><stop offset="0" stop-color="#47AADF"/><stop offset="0.5" stop-color="#05A2DF"/><stop offset="1" stop-color="#0094CE"/></linearGradient><clipPath id="clip3"><path d="M1565 1138 2177 1138 2177 1148.51 2059.41 1148.51 1874.59 1333.33 1874.59 1750 1565 1750Z" fill-rule="evenodd" clip-rule="evenodd"/></clipPath><clipPath id="clip4"><path d="M3266 1138 3878 1138 3878 1750 3513.97 1750 3513.97 1334.25 3329.15 1149.43 3266 1149.43Z" fill-rule="evenodd" clip-rule="evenodd"/></clipPath><linearGradient x1="2696.5" y1="507" x2="2696.5" y2="111" gradientUnits="userSpaceOnUse" spreadMethod="reflect" id="fill5"><stop offset="0" stop-color="#135574"/><stop offset="0.26" stop-color="#2090C2"/><stop offset="0.52" stop-color="#47B1E1"/><stop offset="0.75" stop-color="#8CCEEC"/><stop offset="0.97" stop-color="#BAE2F4"/><stop offset="1" stop-color="#BAE2F4"/></linearGradient><linearGradient x1="2696.5" y1="507" x2="2696.5" y2="111" gradientUnits="userSpaceOnUse" spreadMethod="reflect" id="fill6"><stop offset="0" stop-color="#135574"/><stop offset="0.26" stop-color="#2090C2"/><stop offset="0.52" stop-color="#47B1E1"/><stop offset="0.75" stop-color="#8CCEEC"/><stop offset="0.97" stop-color="#BAE2F4"/><stop offset="1" stop-color="#BAE2F4"/></linearGradient><linearGradient x1="2696.5" y1="507" x2="2696.5" y2="111" gradientUnits="userSpaceOnUse" spreadMethod="reflect" id="fill7"><stop offset="0" stop-color="#135574"/><stop offset="0.26" stop-color="#2090C2"/><stop offset="0.52" stop-color="#47B1E1"/><stop offset="0.75" stop-color="#8CCEEC"/><stop offset="0.97" stop-color="#BAE2F4"/><stop offset="1" stop-color="#BAE2F4"/></linearGradient><linearGradient x1="2696.5" y1="507" x2="2696.5" y2="111" gradientUnits="userSpaceOnUse" spreadMethod="reflect" id="fill8"><stop offset="0" stop-color="#135574"/><stop offset="0.26" stop-color="#2090C2"/><stop offset="0.52" stop-color="#47B1E1"/><stop offset="0.75" stop-color="#8CCEEC"/><stop offset="0.97" stop-color="#BAE2F4"/><stop offset="1" stop-color="#BAE2F4"/></linearGradient><linearGradient x1="2696.5" y1="507" x2="2696.5" y2="111" gradientUnits="userSpaceOnUse" spreadMethod="reflect" id="fill9"><stop offset="0" stop-color="#135574"/><stop offset="0.26" stop-color="#2090C2"/><stop offset="0.52" stop-color="#47B1E1"/><stop offset="0.75" stop-color="#8CCEEC"/><stop offset="0.97" stop-color="#BAE2F4"/><stop offset="1" stop-color="#BAE2F4"/></linearGradient><clipPath id="clip10"><rect x="1565" y="1639" width="311" height="310"/></clipPath><clipPath id="clip11"><rect x="1565" y="1639" width="311" height="310"/></clipPath><clipPath id="clip12"><rect x="3518" y="1640" width="360" height="310"/></clipPath><clipPath id="clip13"><rect x="3518" y="1640" width="360" height="310"/></clipPath></defs><g clip-path="url(#clip1)" transform="translate(-1478 -111)"><g filter="url(#fx0)" transform="translate(1477 412)"><g><path d="M392.614 1662.19 2038.39 1662.19 2038.39 1663.25 392.614 1663.25ZM834.881 20.2498 1596.11 20.2498C1613.82 20.2498 1628.18 34.6049 1628.18 52.3124L1628.18 116.438 2153.39 116.438C2295.67 116.438 2411 231.783 2411 374.069L2411 1568.26C2411 1620.14 2368.95 1662.19 2317.07 1662.19L2038.39 1662.19 2038.39 928.167 1853.56 743.326 577.436 743.326 392.614 928.167 392.614 1662.19 113.927 1662.19C62.0525 1662.19 20 1620.14 20 1568.26L20 374.069C20 231.783 135.335 116.438 277.608 116.438L802.82 116.438 802.82 52.3124C802.82 34.6049 817.174 20.2498 834.881 20.2498Z" fill="#FF0000" fill-rule="evenodd"/></g></g><path d="M1869.61 2087.94 3515.39 2087.94 3515.39 2089 1869.61 2089ZM2311.88 446 3073.11 446C3090.82 446 3105.18 460.355 3105.18 478.062L3105.18 542.188 3630.39 542.188C3772.67 542.188 3888 657.533 3888 799.819L3888 1994.01C3888 2045.89 3845.95 2087.94 3794.07 2087.94L3515.39 2087.94 3515.39 1353.92 3330.56 1169.08 2054.44 1169.08 1869.61 1353.92 1869.61 2087.94 1590.93 2087.94C1539.05 2087.94 1497 2045.89 1497 1994.01L1497 799.819C1497 657.533 1612.33 542.188 1754.61 542.188L2279.82 542.188 2279.82 478.062C2279.82 460.355 2294.17 446 2311.88 446Z" fill="url(#fill2)" fill-rule="evenodd"/><g clip-path="url(#clip3)"><g><g><path d="M1635.16 1220.88 1673.41 1220.88 1673.41 1412.12 1635.16 1412.12Z" fill="#048EC4"/><path d="M1800.91 1259.13C1807.96 1259.13 1813.66 1264.83 1813.66 1271.88L1813.66 1361.13C1813.66 1368.17 1807.96 1373.88 1800.91 1373.88L1762.66 1373.88C1755.62 1373.88 1749.91 1368.17 1749.91 1361.13L1749.91 1271.88C1749.91 1264.83 1755.62 1259.13 1762.66 1259.13L1800.91 1259.13M1800.91 1220.88 1762.66 1220.88C1734.5 1220.88 1711.66 1243.71 1711.66 1271.88L1711.66 1361.13C1711.66 1389.29 1734.5 1412.12 1762.66 1412.12L1800.91 1412.12C1829.08 1412.12 1851.91 1389.29 1851.91 1361.13L1851.91 1271.88C1851.91 1243.71 1829.08 1220.88 1800.91 1220.88Z" fill="#048EC4"/><path d="M1890.16 1220.88 1928.41 1220.88 1928.41 1412.12 1890.16 1412.12Z" fill="#048EC4"/><path d="M2055.91 1259.13C2062.96 1259.13 2068.66 1264.83 2068.66 1271.88L2068.66 1361.13C2068.66 1368.17 2062.96 1373.88 2055.91 1373.88L2017.66 1373.88C2010.62 1373.88 2004.91 1368.17 2004.91 1361.13L2004.91 1271.88C2004.91 1264.83 2010.62 1259.13 2017.66 1259.13L2055.91 1259.13M2055.91 1220.88 2017.66 1220.88C1989.5 1220.88 1966.66 1243.71 1966.66 1271.88L1966.66 1361.13C1966.66 1389.29 1989.5 1412.12 2017.66 1412.12L2055.91 1412.12C2084.08 1412.12 2106.91 1389.29 2106.91 1361.13L2106.91 1271.88C2106.91 1243.71 2084.08 1220.88 2055.91 1220.88Z" fill="#048EC4"/><path d="M1635.16 1475.88 1673.41 1475.88 1673.41 1667.12 1635.16 1667.12Z" fill="#048EC4"/><path d="M1800.91 1514.12C1807.96 1514.12 1813.66 1519.83 1813.66 1526.88L1813.66 1616.12C1813.66 1623.17 1807.96 1628.88 1800.91 1628.88L1762.66 1628.88C1755.62 1628.88 1749.91 1623.17 1749.91 1616.12L1749.91 1526.88C1749.91 1519.83 1755.62 1514.12 1762.66 1514.12L1800.91 1514.12M1800.91 1475.88 1762.66 1475.88C1734.5 1475.88 1711.66 1498.71 1711.66 1526.88L1711.66 1616.12C1711.66 1644.29 1734.5 1667.12 1762.66 1667.12L1800.91 1667.12C1829.08 1667.12 1851.91 1644.29 1851.91 1616.12L1851.91 1526.88C1851.91 1498.71 1829.08 1475.88 1800.91 1475.88Z" fill="#048EC4"/><path d="M1890.16 1475.88 1928.41 1475.88 1928.41 1667.12 1890.16 1667.12Z" fill="#048EC4"/><path d="M2055.91 1514.12C2062.96 1514.12 2068.66 1519.83 2068.66 1526.88L2068.66 1616.12C2068.66 1623.17 2062.96 1628.88 2055.91 1628.88L2017.66 1628.88C2010.62 1628.88 2004.91 1623.17 2004.91 1616.12L2004.91 1526.88C2004.91 1519.83 2010.62 1514.12 2017.66 1514.12L2055.91 1514.12M2055.91 1475.88 2017.66 1475.88C1989.5 1475.88 1966.66 1498.71 1966.66 1526.88L1966.66 1616.12C1966.66 1644.29 1989.5 1667.12 2017.66 1667.12L2055.91 1667.12C2084.08 1667.12 2106.91 1644.29 2106.91 1616.12L2106.91 1526.88C2106.91 1498.71 2084.08 1475.88 2055.91 1475.88Z" fill="#048EC4"/></g></g></g><g><g><g><path d="M70.1632 82.875 108.413 82.875 108.413 274.125 70.1632 274.125Z" fill="#048EC4" transform="matrix(1 0 0 1 1565 635)"/><path d="M235.913 121.125C242.955 121.125 248.663 126.833 248.663 133.875L248.663 223.125C248.663 230.167 242.955 235.875 235.913 235.875L197.663 235.875C190.621 235.875 184.913 230.167 184.913 223.125L184.913 133.875C184.913 126.833 190.621 121.125 197.663 121.125L235.913 121.125M235.913 82.875 197.663 82.875C169.497 82.875 146.663 105.708 146.663 133.875L146.663 223.125C146.663 251.292 169.497 274.125 197.663 274.125L235.913 274.125C264.08 274.125 286.913 251.292 286.913 223.125L286.913 133.875C286.913 105.708 264.08 82.875 235.913 82.875Z" fill="#048EC4" transform="matrix(1 0 0 1 1565 635)"/><path d="M325.163 82.875 363.413 82.875 363.413 274.125 325.163 274.125Z" fill="#048EC4" transform="matrix(1 0 0 1 1565 635)"/><path d="M490.913 121.125C497.955 121.125 503.663 126.833 503.663 133.875L503.663 223.125C503.663 230.167 497.955 235.875 490.913 235.875L452.663 235.875C445.621 235.875 439.913 230.167 439.913 223.125L439.913 133.875C439.913 126.833 445.621 121.125 452.663 121.125L490.913 121.125M490.913 82.875 452.663 82.875C424.496 82.875 401.663 105.708 401.663 133.875L401.663 223.125C401.663 251.292 424.496 274.125 452.663 274.125L490.913 274.125C519.08 274.125 541.913 251.292 541.913 223.125L541.913 133.875C541.913 105.708 519.08 82.875 490.913 82.875Z" fill="#048EC4" transform="matrix(1 0 0 1 1565 635)"/><path d="M70.1632 337.875 108.413 337.875 108.413 529.125 70.1632 529.125Z" fill="#048EC4" transform="matrix(1 0 0 1 1565 635)"/><path d="M235.913 376.125C242.955 376.125 248.663 381.833 248.663 388.875L248.663 478.125C248.663 485.167 242.955 490.875 235.913 490.875L197.663 490.875C190.621 490.875 184.913 485.167 184.913 478.125L184.913 388.875C184.913 381.833 190.621 376.125 197.663 376.125L235.913 376.125M235.913 337.875 197.663 337.875C169.497 337.875 146.663 360.708 146.663 388.875L146.663 478.125C146.663 506.292 169.497 529.125 197.663 529.125L235.913 529.125C264.08 529.125 286.913 506.292 286.913 478.125L286.913 388.875C286.913 360.708 264.08 337.875 235.913 337.875Z" fill="#048EC4" transform="matrix(1 0 0 1 1565 635)"/><path d="M325.163 337.875 363.413 337.875 363.413 529.125 325.163 529.125Z" fill="#048EC4" transform="matrix(1 0 0 1 1565 635)"/><path d="M490.913 376.125C497.955 376.125 503.663 381.833 503.663 388.875L503.663 478.125C503.663 485.167 497.955 490.875 490.913 490.875L452.663 490.875C445.621 490.875 439.913 485.167 439.913 478.125L439.913 388.875C439.913 381.833 445.621 376.125 452.663 376.125L490.913 376.125M490.913 337.875 452.663 337.875C424.496 337.875 401.663 360.708 401.663 388.875L401.663 478.125C401.663 506.292 424.496 529.125 452.663 529.125L490.913 529.125C519.08 529.125 541.913 506.292 541.913 478.125L541.913 388.875C541.913 360.708 519.08 337.875 490.913 337.875Z" fill="#048EC4" transform="matrix(1 0 0 1 1565 635)"/></g></g></g><g><g><g><path d="M2204.16 713.875 2242.41 713.875 2242.41 905.125 2204.16 905.125Z" fill="#048EC4"/><path d="M2369.91 752.125C2376.96 752.125 2382.66 757.833 2382.66 764.875L2382.66 854.125C2382.66 861.167 2376.96 866.875 2369.91 866.875L2331.66 866.875C2324.62 866.875 2318.91 861.167 2318.91 854.125L2318.91 764.875C2318.91 757.833 2324.62 752.125 2331.66 752.125L2369.91 752.125M2369.91 713.875 2331.66 713.875C2303.5 713.875 2280.66 736.708 2280.66 764.875L2280.66 854.125C2280.66 882.292 2303.5 905.125 2331.66 905.125L2369.91 905.125C2398.08 905.125 2420.91 882.292 2420.91 854.125L2420.91 764.875C2420.91 736.708 2398.08 713.875 2369.91 713.875Z" fill="#048EC4"/><path d="M2459.16 713.875 2497.41 713.875 2497.41 905.125 2459.16 905.125Z" fill="#048EC4"/><path d="M2624.91 752.125C2631.96 752.125 2637.66 757.833 2637.66 764.875L2637.66 854.125C2637.66 861.167 2631.96 866.875 2624.91 866.875L2586.66 866.875C2579.62 866.875 2573.91 861.167 2573.91 854.125L2573.91 764.875C2573.91 757.833 2579.62 752.125 2586.66 752.125L2624.91 752.125M2624.91 713.875 2586.66 713.875C2558.5 713.875 2535.66 736.708 2535.66 764.875L2535.66 854.125C2535.66 882.292 2558.5 905.125 2586.66 905.125L2624.91 905.125C2653.08 905.125 2675.91 882.292 2675.91 854.125L2675.91 764.875C2675.91 736.708 2653.08 713.875 2624.91 713.875Z" fill="#048EC4"/><path d="M2204.16 968.875 2242.41 968.875 2242.41 1160.12 2204.16 1160.12Z" fill="#048EC4"/><path d="M2369.91 1007.12C2376.96 1007.12 2382.66 1012.83 2382.66 1019.88L2382.66 1109.12C2382.66 1116.17 2376.96 1121.88 2369.91 1121.88L2331.66 1121.88C2324.62 1121.88 2318.91 1116.17 2318.91 1109.12L2318.91 1019.88C2318.91 1012.83 2324.62 1007.12 2331.66 1007.12L2369.91 1007.12M2369.91 968.875 2331.66 968.875C2303.5 968.875 2280.66 991.708 2280.66 1019.88L2280.66 1109.12C2280.66 1137.29 2303.5 1160.12 2331.66 1160.12L2369.91 1160.12C2398.08 1160.12 2420.91 1137.29 2420.91 1109.12L2420.91 1019.88C2420.91 991.708 2398.08 968.875 2369.91 968.875Z" fill="#048EC4"/><path d="M2459.16 968.875 2497.41 968.875 2497.41 1160.12 2459.16 1160.12Z" fill="#048EC4"/><path d="M2624.91 1007.12C2631.96 1007.12 2637.66 1012.83 2637.66 1019.88L2637.66 1109.12C2637.66 1116.17 2631.96 1121.88 2624.91 1121.88L2586.66 1121.88C2579.62 1121.88 2573.91 1116.17 2573.91 1109.12L2573.91 1019.88C2573.91 1012.83 2579.62 1007.12 2586.66 1007.12L2624.91 1007.12M2624.91 968.875 2586.66 968.875C2558.5 968.875 2535.66 991.708 2535.66 1019.88L2535.66 1109.12C2535.66 1137.29 2558.5 1160.12 2586.66 1160.12L2624.91 1160.12C2653.08 1160.12 2675.91 1137.29 2675.91 1109.12L2675.91 1019.88C2675.91 991.708 2653.08 968.875 2624.91 968.875Z" fill="#048EC4"/></g></g></g><g><g><g><path d="M70.1632 82.875 108.413 82.875 108.413 274.125 70.1632 274.125Z" fill="#048EC4" transform="matrix(1 0 0 1 2697 635)"/><path d="M235.913 121.125C242.955 121.125 248.663 126.833 248.663 133.875L248.663 223.125C248.663 230.167 242.955 235.875 235.913 235.875L197.663 235.875C190.621 235.875 184.913 230.167 184.913 223.125L184.913 133.875C184.913 126.833 190.621 121.125 197.663 121.125L235.913 121.125M235.913 82.875 197.663 82.875C169.497 82.875 146.663 105.708 146.663 133.875L146.663 223.125C146.663 251.292 169.497 274.125 197.663 274.125L235.913 274.125C264.08 274.125 286.913 251.292 286.913 223.125L286.913 133.875C286.913 105.708 264.08 82.875 235.913 82.875Z" fill="#048EC4" transform="matrix(1 0 0 1 2697 635)"/><path d="M325.163 82.875 363.413 82.875 363.413 274.125 325.163 274.125Z" fill="#048EC4" transform="matrix(1 0 0 1 2697 635)"/><path d="M490.913 121.125C497.955 121.125 503.663 126.833 503.663 133.875L503.663 223.125C503.663 230.167 497.955 235.875 490.913 235.875L452.663 235.875C445.621 235.875 439.913 230.167 439.913 223.125L439.913 133.875C439.913 126.833 445.621 121.125 452.663 121.125L490.913 121.125M490.913 82.875 452.663 82.875C424.496 82.875 401.663 105.708 401.663 133.875L401.663 223.125C401.663 251.292 424.496 274.125 452.663 274.125L490.913 274.125C519.08 274.125 541.913 251.292 541.913 223.125L541.913 133.875C541.913 105.708 519.08 82.875 490.913 82.875Z" fill="#048EC4" transform="matrix(1 0 0 1 2697 635)"/><path d="M70.1632 337.875 108.413 337.875 108.413 529.125 70.1632 529.125Z" fill="#048EC4" transform="matrix(1 0 0 1 2697 635)"/><path d="M235.913 376.125C242.955 376.125 248.663 381.833 248.663 388.875L248.663 478.125C248.663 485.167 242.955 490.875 235.913 490.875L197.663 490.875C190.621 490.875 184.913 485.167 184.913 478.125L184.913 388.875C184.913 381.833 190.621 376.125 197.663 376.125L235.913 376.125M235.913 337.875 197.663 337.875C169.497 337.875 146.663 360.708 146.663 388.875L146.663 478.125C146.663 506.292 169.497 529.125 197.663 529.125L235.913 529.125C264.08 529.125 286.913 506.292 286.913 478.125L286.913 388.875C286.913 360.708 264.08 337.875 235.913 337.875Z" fill="#048EC4" transform="matrix(1 0 0 1 2697 635)"/><path d="M325.163 337.875 363.413 337.875 363.413 529.125 325.163 529.125Z" fill="#048EC4" transform="matrix(1 0 0 1 2697 635)"/><path d="M490.913 376.125C497.955 376.125 503.663 381.833 503.663 388.875L503.663 478.125C503.663 485.167 497.955 490.875 490.913 490.875L452.663 490.875C445.621 490.875 439.913 485.167 439.913 478.125L439.913 388.875C439.913 381.833 445.621 376.125 452.663 376.125L490.913 376.125M490.913 337.875 452.663 337.875C424.496 337.875 401.663 360.708 401.663 388.875L401.663 478.125C401.663 506.292 424.496 529.125 452.663 529.125L490.913 529.125C519.08 529.125 541.913 506.292 541.913 478.125L541.913 388.875C541.913 360.708 519.08 337.875 490.913 337.875Z" fill="#048EC4" transform="matrix(1 0 0 1 2697 635)"/></g></g></g><g><g><g><path d="M3336.16 713.875 3374.41 713.875 3374.41 905.125 3336.16 905.125Z" fill="#048EC4"/><path d="M3501.91 752.125C3508.96 752.125 3514.66 757.833 3514.66 764.875L3514.66 854.125C3514.66 861.167 3508.96 866.875 3501.91 866.875L3463.66 866.875C3456.62 866.875 3450.91 861.167 3450.91 854.125L3450.91 764.875C3450.91 757.833 3456.62 752.125 3463.66 752.125L3501.91 752.125M3501.91 713.875 3463.66 713.875C3435.5 713.875 3412.66 736.708 3412.66 764.875L3412.66 854.125C3412.66 882.292 3435.5 905.125 3463.66 905.125L3501.91 905.125C3530.08 905.125 3552.91 882.292 3552.91 854.125L3552.91 764.875C3552.91 736.708 3530.08 713.875 3501.91 713.875Z" fill="#048EC4"/><path d="M3591.16 713.875 3629.41 713.875 3629.41 905.125 3591.16 905.125Z" fill="#048EC4"/><path d="M3756.91 752.125C3763.96 752.125 3769.66 757.833 3769.66 764.875L3769.66 854.125C3769.66 861.167 3763.96 866.875 3756.91 866.875L3718.66 866.875C3711.62 866.875 3705.91 861.167 3705.91 854.125L3705.91 764.875C3705.91 757.833 3711.62 752.125 3718.66 752.125L3756.91 752.125M3756.91 713.875 3718.66 713.875C3690.5 713.875 3667.66 736.708 3667.66 764.875L3667.66 854.125C3667.66 882.292 3690.5 905.125 3718.66 905.125L3756.91 905.125C3785.08 905.125 3807.91 882.292 3807.91 854.125L3807.91 764.875C3807.91 736.708 3785.08 713.875 3756.91 713.875Z" fill="#048EC4"/><path d="M3336.16 968.875 3374.41 968.875 3374.41 1160.12 3336.16 1160.12Z" fill="#048EC4"/><path d="M3501.91 1007.12C3508.96 1007.12 3514.66 1012.83 3514.66 1019.88L3514.66 1109.12C3514.66 1116.17 3508.96 1121.88 3501.91 1121.88L3463.66 1121.88C3456.62 1121.88 3450.91 1116.17 3450.91 1109.12L3450.91 1019.88C3450.91 1012.83 3456.62 1007.12 3463.66 1007.12L3501.91 1007.12M3501.91 968.875 3463.66 968.875C3435.5 968.875 3412.66 991.708 3412.66 1019.88L3412.66 1109.12C3412.66 1137.29 3435.5 1160.12 3463.66 1160.12L3501.91 1160.12C3530.08 1160.12 3552.91 1137.29 3552.91 1109.12L3552.91 1019.88C3552.91 991.708 3530.08 968.875 3501.91 968.875Z" fill="#048EC4"/><path d="M3591.16 968.875 3629.41 968.875 3629.41 1160.12 3591.16 1160.12Z" fill="#048EC4"/><path d="M3756.91 1007.12C3763.96 1007.12 3769.66 1012.83 3769.66 1019.88L3769.66 1109.12C3769.66 1116.17 3763.96 1121.88 3756.91 1121.88L3718.66 1121.88C3711.62 1121.88 3705.91 1116.17 3705.91 1109.12L3705.91 1019.88C3705.91 1012.83 3711.62 1007.12 3718.66 1007.12L3756.91 1007.12M3756.91 968.875 3718.66 968.875C3690.5 968.875 3667.66 991.708 3667.66 1019.88L3667.66 1109.12C3667.66 1137.29 3690.5 1160.12 3718.66 1160.12L3756.91 1160.12C3785.08 1160.12 3807.91 1137.29 3807.91 1109.12L3807.91 1019.88C3807.91 991.708 3785.08 968.875 3756.91 968.875Z" fill="#048EC4"/></g></g></g><g clip-path="url(#clip4)"><g><g><path d="M3336.16 1220.88 3374.41 1220.88 3374.41 1412.12 3336.16 1412.12Z" fill="#048EC4"/><path d="M3501.91 1259.13C3508.96 1259.13 3514.66 1264.83 3514.66 1271.88L3514.66 1361.13C3514.66 1368.17 3508.96 1373.88 3501.91 1373.88L3463.66 1373.88C3456.62 1373.88 3450.91 1368.17 3450.91 1361.13L3450.91 1271.88C3450.91 1264.83 3456.62 1259.13 3463.66 1259.13L3501.91 1259.13M3501.91 1220.88 3463.66 1220.88C3435.5 1220.88 3412.66 1243.71 3412.66 1271.88L3412.66 1361.13C3412.66 1389.29 3435.5 1412.12 3463.66 1412.12L3501.91 1412.12C3530.08 1412.12 3552.91 1389.29 3552.91 1361.13L3552.91 1271.88C3552.91 1243.71 3530.08 1220.88 3501.91 1220.88Z" fill="#048EC4"/><path d="M3591.16 1220.88 3629.41 1220.88 3629.41 1412.12 3591.16 1412.12Z" fill="#048EC4"/><path d="M3756.91 1259.13C3763.96 1259.13 3769.66 1264.83 3769.66 1271.88L3769.66 1361.13C3769.66 1368.17 3763.96 1373.88 3756.91 1373.88L3718.66 1373.88C3711.62 1373.88 3705.91 1368.17 3705.91 1361.13L3705.91 1271.88C3705.91 1264.83 3711.62 1259.13 3718.66 1259.13L3756.91 1259.13M3756.91 1220.88 3718.66 1220.88C3690.5 1220.88 3667.66 1243.71 3667.66 1271.88L3667.66 1361.13C3667.66 1389.29 3690.5 1412.12 3718.66 1412.12L3756.91 1412.12C3785.08 1412.12 3807.91 1389.29 3807.91 1361.13L3807.91 1271.88C3807.91 1243.71 3785.08 1220.88 3756.91 1220.88Z" fill="#048EC4"/><path d="M3336.16 1475.88 3374.41 1475.88 3374.41 1667.12 3336.16 1667.12Z" fill="#048EC4"/><path d="M3501.91 1514.12C3508.96 1514.12 3514.66 1519.83 3514.66 1526.88L3514.66 1616.12C3514.66 1623.17 3508.96 1628.88 3501.91 1628.88L3463.66 1628.88C3456.62 1628.88 3450.91 1623.17 3450.91 1616.12L3450.91 1526.88C3450.91 1519.83 3456.62 1514.12 3463.66 1514.12L3501.91 1514.12M3501.91 1475.88 3463.66 1475.88C3435.5 1475.88 3412.66 1498.71 3412.66 1526.88L3412.66 1616.12C3412.66 1644.29 3435.5 1667.12 3463.66 1667.12L3501.91 1667.12C3530.08 1667.12 3552.91 1644.29 3552.91 1616.12L3552.91 1526.88C3552.91 1498.71 3530.08 1475.88 3501.91 1475.88Z" fill="#048EC4"/><path d="M3591.16 1475.88 3629.41 1475.88 3629.41 1667.12 3591.16 1667.12Z" fill="#048EC4"/><path d="M3756.91 1514.12C3763.96 1514.12 3769.66 1519.83 3769.66 1526.88L3769.66 1616.12C3769.66 1623.17 3763.96 1628.88 3756.91 1628.88L3718.66 1628.88C3711.62 1628.88 3705.91 1623.17 3705.91 1616.12L3705.91 1526.88C3705.91 1519.83 3711.62 1514.12 3718.66 1514.12L3756.91 1514.12M3756.91 1475.88 3718.66 1475.88C3690.5 1475.88 3667.66 1498.71 3667.66 1526.88L3667.66 1616.12C3667.66 1644.29 3690.5 1667.12 3718.66 1667.12L3756.91 1667.12C3785.08 1667.12 3807.91 1644.29 3807.91 1616.12L3807.91 1526.88C3807.91 1498.71 3785.08 1475.88 3756.91 1475.88Z" fill="#048EC4"/></g></g></g><rect x="2554" y="403" width="285" height="104" fill="url(#fill5)"/><rect x="2554" y="297" width="285" height="68.0001" fill="url(#fill6)"/><rect x="2554" y="225" width="285" height="33.9997" fill="url(#fill7)"/><rect x="2554" y="164" width="285" height="17.0002" fill="url(#fill8)"/><rect x="2554" y="111" width="284" height="11" fill="url(#fill9)"/><g clip-path="url(#clip10)"><g clip-path="url(#clip11)"><g><path d="M70.2556 82.9841 108.556 82.9841 108.556 274.486 70.2556 274.486Z" fill="#048EC4" transform="matrix(1 0 0 1.00103 1565 1639)"/><path d="M236.224 121.284C243.275 121.284 248.991 127 248.991 134.051L248.991 223.419C248.991 230.47 243.275 236.186 236.224 236.186L197.924 236.186C190.872 236.186 185.157 230.47 185.157 223.419L185.157 134.051C185.157 127 190.872 121.284 197.924 121.284L236.224 121.284M236.224 82.9841 197.924 82.9841C169.72 82.9841 146.856 105.848 146.856 134.051L146.856 223.419C146.856 251.623 169.72 274.486 197.924 274.486L236.224 274.486C264.428 274.486 287.291 251.623 287.291 223.419L287.291 134.051C287.291 105.848 264.428 82.9841 236.224 82.9841Z" fill="#048EC4" transform="matrix(1 0 0 1.00103 1565 1639)"/><path d="M325.591 82.9841 363.892 82.9841 363.892 274.486 325.591 274.486Z" fill="#048EC4" transform="matrix(1 0 0 1.00103 1565 1639)"/><path d="M491.56 121.284C498.611 121.284 504.326 127 504.326 134.051L504.326 223.419C504.326 230.47 498.611 236.186 491.56 236.186L453.259 236.186C446.208 236.186 440.492 230.47 440.492 223.419L440.492 134.051C440.492 127 446.208 121.284 453.259 121.284L491.56 121.284M491.56 82.9841 453.259 82.9841C425.056 82.9841 402.192 105.848 402.192 134.051L402.192 223.419C402.192 251.623 425.056 274.486 453.259 274.486L491.56 274.486C519.763 274.486 542.627 251.623 542.627 223.419L542.627 134.051C542.627 105.848 519.763 82.9841 491.56 82.9841Z" fill="#048EC4" transform="matrix(1 0 0 1.00103 1565 1639)"/><path d="M70.2556 338.32 108.556 338.32 108.556 529.822 70.2556 529.822Z" fill="#048EC4" transform="matrix(1 0 0 1.00103 1565 1639)"/><path d="M236.224 376.62C243.275 376.62 248.991 382.336 248.991 389.387L248.991 478.755C248.991 485.806 243.275 491.521 236.224 491.521L197.924 491.521C190.872 491.521 185.157 485.806 185.157 478.755L185.157 389.387C185.157 382.336 190.872 376.62 197.924 376.62L236.224 376.62M236.224 338.32 197.924 338.32C169.72 338.32 146.856 361.183 146.856 389.387L146.856 478.755C146.856 506.958 169.72 529.822 197.924 529.822L236.224 529.822C264.428 529.822 287.291 506.958 287.291 478.755L287.291 389.387C287.291 361.183 264.428 338.32 236.224 338.32Z" fill="#048EC4" transform="matrix(1 0 0 1.00103 1565 1639)"/><path d="M325.591 338.32 363.892 338.32 363.892 529.822 325.591 529.822Z" fill="#048EC4" transform="matrix(1 0 0 1.00103 1565 1639)"/><path d="M491.56 376.62C498.611 376.62 504.326 382.336 504.326 389.387L504.326 478.755C504.326 485.806 498.611 491.521 491.56 491.521L453.259 491.521C446.208 491.521 440.492 485.806 440.492 478.755L440.492 389.387C440.492 382.336 446.208 376.62 453.259 376.62L491.56 376.62M491.56 338.32 453.259 338.32C425.056 338.32 402.192 361.183 402.192 389.387L402.192 478.755C402.192 506.958 425.056 529.822 453.259 529.822L491.56 529.822C519.763 529.822 542.627 506.958 542.627 478.755L542.627 389.387C542.627 361.183 519.763 338.32 491.56 338.32Z" fill="#048EC4" transform="matrix(1 0 0 1.00103 1565 1639)"/></g></g></g><g clip-path="url(#clip12)"><g clip-path="url(#clip13)"><g><path d="M70.112 82.8145 108.334 82.8145 108.334 273.925 70.112 273.925Z" fill="#048EC4" transform="matrix(1 0 0 1.00308 3266.45 1640)"/><path d="M235.741 121.036C242.778 121.036 248.482 126.741 248.482 133.777L248.482 222.962C248.482 229.999 242.778 235.703 235.741 235.703L197.519 235.703C190.482 235.703 184.778 229.999 184.778 222.962L184.778 133.777C184.778 126.741 190.482 121.036 197.519 121.036L235.741 121.036M235.741 82.8145 197.519 82.8145C169.373 82.8145 146.556 105.631 146.556 133.777L146.556 222.962C146.556 251.108 169.373 273.925 197.519 273.925L235.741 273.925C263.887 273.925 286.704 251.108 286.704 222.962L286.704 133.777C286.704 105.631 263.887 82.8145 235.741 82.8145Z" fill="#048EC4" transform="matrix(1 0 0 1.00308 3266.45 1640)"/><path d="M324.926 82.8145 363.148 82.8145 363.148 273.925 324.926 273.925Z" fill="#048EC4" transform="matrix(1 0 0 1.00308 3266.45 1640)"/><path d="M490.555 121.036C497.591 121.036 503.295 126.741 503.295 133.777L503.295 222.962C503.295 229.999 497.591 235.703 490.555 235.703L452.332 235.703C445.296 235.703 439.592 229.999 439.592 222.962L439.592 133.777C439.592 126.741 445.296 121.036 452.332 121.036L490.555 121.036M490.555 82.8145 452.332 82.8145C424.186 82.8145 401.37 105.631 401.37 133.777L401.37 222.962C401.37 251.108 424.186 273.925 452.332 273.925L490.555 273.925C518.701 273.925 541.517 251.108 541.517 222.962L541.517 133.777C541.517 105.631 518.701 82.8145 490.555 82.8145Z" fill="#048EC4" transform="matrix(1 0 0 1.00308 3266.45 1640)"/><path d="M70.112 337.628 108.334 337.628 108.334 528.738 70.112 528.738Z" fill="#048EC4" transform="matrix(1 0 0 1.00308 3266.45 1640)"/><path d="M235.741 375.85C242.778 375.85 248.482 381.554 248.482 388.591L248.482 477.776C248.482 484.812 242.778 490.516 235.741 490.516L197.519 490.516C190.482 490.516 184.778 484.812 184.778 477.776L184.778 388.591C184.778 381.554 190.482 375.85 197.519 375.85L235.741 375.85M235.741 337.628 197.519 337.628C169.373 337.628 146.556 360.445 146.556 388.591L146.556 477.776C146.556 505.922 169.373 528.738 197.519 528.738L235.741 528.738C263.887 528.738 286.704 505.922 286.704 477.776L286.704 388.591C286.704 360.445 263.887 337.628 235.741 337.628Z" fill="#048EC4" transform="matrix(1 0 0 1.00308 3266.45 1640)"/><path d="M324.926 337.628 363.148 337.628 363.148 528.738 324.926 528.738Z" fill="#048EC4" transform="matrix(1 0 0 1.00308 3266.45 1640)"/><path d="M490.555 375.85C497.591 375.85 503.295 381.554 503.295 388.591L503.295 477.776C503.295 484.812 497.591 490.516 490.555 490.516L452.332 490.516C445.296 490.516 439.592 484.812 439.592 477.776L439.592 388.591C439.592 381.554 445.296 375.85 452.332 375.85L490.555 375.85M490.555 337.628 452.332 337.628C424.186 337.628 401.37 360.445 401.37 388.591L401.37 477.776C401.37 505.922 424.186 528.738 452.332 528.738L490.555 528.738C518.701 528.738 541.517 505.922 541.517 477.776L541.517 388.591C541.517 360.445 518.701 337.628 490.555 337.628Z" fill="#048EC4" transform="matrix(1 0 0 1.00308 3266.45 1640)"/></g></g></g><text fill="#FFFFFF" font-family="Segoe UI Black,Segoe UI Black_MSFontService,sans-serif" font-weight="900" font-size="527" transform="matrix(1 0 0 1 1992.36 1027)">SMIA</text></g></svg>