<svg width="320" height="358" xmlns="http://www.w3.org/2000/svg" xmlns:xlink="http://www.w3.org/1999/xlink" xml:space="preserve" overflow="hidden"><defs><clipPath id="clip0"><rect x="3138" y="1286" width="320" height="358"/></clipPath></defs><g clip-path="url(#clip0)" transform="translate(-3138 -1286)"><path d="M3149.65 1525.78C3161.2 1574.13 3256.42 1590.12 3329.03 1576.77L3331.06 1576.19 3329.99 1586.74C3329.99 1596.48 3331.97 1605.77 3335.53 1614.21L3338.39 1618.47 3331.67 1620.48C3259.91 1634.85 3164.26 1622.04 3149.65 1571.63ZM3149 1464.28C3167.47 1541.63 3401.44 1540.85 3413 1464.89L3413 1510.7 3410.83 1517.19 3400.44 1516.14C3371.26 1516.14 3346.23 1533.92 3335.53 1559.26L3334.83 1561.52 3331.9 1562.19C3259.76 1575.18 3163.6 1560.54 3149 1510.13ZM3149 1406.42C3167.47 1481.96 3401.44 1481.2 3413 1407.01L3413 1451.76C3404.51 1519.31 3172.37 1529.96 3149 1451.2ZM3280.99 1326C3353.53 1326 3412.32 1352.76 3412.32 1385.72 3412.32 1418.7 3353.5 1445.44 3280.99 1445.44 3208.47 1445.44 3149.65 1418.68 3149.65 1385.72 3149.65 1352.76 3208.47 1326 3280.99 1326Z" fill="#7030A0" fill-rule="evenodd"/><text fill="#D9D9D9" font-family="Segoe UI Black,Segoe UI Black_MSFontService,sans-serif" font-weight="900" font-size="110" transform="matrix(1 0 0 1 3204.72 1427)">KB</text><g><g><g><path d="M3400 1528C3432.03 1528 3458 1553.97 3458 1586 3458 1618.03 3432.03 1644 3400 1644 3367.97 1644 3342 1618.03 3342 1586 3342 1553.97 3367.97 1528 3400 1528L3400 1528ZM3416.97 1620.72 3383.03 1620.72 3383.03 1615 3389.41 1615 3389.41 1580.11 3383.03 1580.11 3383.03 1575.56 3398.89 1575.56C3402.9 1575.56 3406.84 1575.08 3410.74 1574.1L3410.74 1615 3416.97 1615 3416.97 1620.72 3416.97 1620.72ZM3402.28 1547.9C3404.91 1547.9 3406.98 1548.66 3408.49 1550.16 3409.98 1551.66 3410.73 1553.72 3410.73 1556.37 3410.73 1559.06 3409.45 1561.45 3406.87 1563.55 3404.27 1565.64 3401.26 1566.7 3397.83 1566.7 3395.25 1566.7 3393.2 1565.98 3391.62 1564.53 3390.05 1563.07 3389.27 1561.17 3389.27 1558.82 3389.27 1555.85 3390.55 1553.29 3393.1 1551.12 3395.65 1548.97 3398.71 1547.9 3402.28 1547.9L3402.28 1547.9Z" fill="#7030A0" fill-rule="evenodd"/></g></g></g></g></svg>