<svg width="332" height="270" xmlns="http://www.w3.org/2000/svg" xmlns:xlink="http://www.w3.org/1999/xlink" xml:space="preserve" overflow="hidden"><defs><filter id="fx0" x="-10%" y="-10%" width="120%" height="120%" filterUnits="userSpaceOnUse" primitiveUnits="userSpaceOnUse"><feComponentTransfer color-interpolation-filters="sRGB"><feFuncR type="discrete" tableValues="0 0"/><feFuncG type="discrete" tableValues="0 0"/><feFuncB type="discrete" tableValues="0 0"/><feFuncA type="linear" slope="0.4" intercept="0"/></feComponentTransfer><feGaussianBlur stdDeviation="6.11111 6.11111"/></filter><clipPath id="clip1"><rect x="2302" y="2018" width="332" height="270"/></clipPath><linearGradient x1="2468" y1="2062" x2="2468" y2="2283" gradientUnits="userSpaceOnUse" spreadMethod="reflect" id="fill2"><stop offset="0" stop-color="#47AADF"/><stop offset="0.5" stop-color="#05A2DF"/><stop offset="1" stop-color="#0094CE"/></linearGradient><clipPath id="clip3"><path d="M2329 2155 2405 2155 2405 2156.41 2390.4 2156.41 2367.45 2181.17 2367.45 2237 2329 2237Z" fill-rule="evenodd" clip-rule="evenodd"/></clipPath><clipPath id="clip4"><path d="M2539 2155 2614 2155 2614 2237 2569.39 2237 2569.39 2181.29 2546.74 2156.53 2539 2156.53Z" fill-rule="evenodd" clip-rule="evenodd"/></clipPath><linearGradient x1="2468.5" y1="2071" x2="2468.5" y2="2018" gradientUnits="userSpaceOnUse" spreadMethod="reflect" id="fill5"><stop offset="0" stop-color="#135574"/><stop offset="0.26" stop-color="#2090C2"/><stop offset="0.52" stop-color="#47B1E1"/><stop offset="0.75" stop-color="#8CCEEC"/><stop offset="0.97" stop-color="#BAE2F4"/><stop offset="1" stop-color="#BAE2F4"/></linearGradient><linearGradient x1="2468.5" y1="2071" x2="2468.5" y2="2018" gradientUnits="userSpaceOnUse" spreadMethod="reflect" id="fill6"><stop offset="0" stop-color="#135574"/><stop offset="0.26" stop-color="#2090C2"/><stop offset="0.52" stop-color="#47B1E1"/><stop offset="0.75" stop-color="#8CCEEC"/><stop offset="0.97" stop-color="#BAE2F4"/><stop offset="1" stop-color="#BAE2F4"/></linearGradient><linearGradient x1="2468.5" y1="2071" x2="2468.5" y2="2018" gradientUnits="userSpaceOnUse" spreadMethod="reflect" id="fill7"><stop offset="0" stop-color="#135574"/><stop offset="0.26" stop-color="#2090C2"/><stop offset="0.52" stop-color="#47B1E1"/><stop offset="0.75" stop-color="#8CCEEC"/><stop offset="0.97" stop-color="#BAE2F4"/><stop offset="1" stop-color="#BAE2F4"/></linearGradient><linearGradient x1="2468.5" y1="2071" x2="2468.5" y2="2018" gradientUnits="userSpaceOnUse" spreadMethod="reflect" id="fill8"><stop offset="0" stop-color="#135574"/><stop offset="0.26" stop-color="#2090C2"/><stop offset="0.52" stop-color="#47B1E1"/><stop offset="0.75" stop-color="#8CCEEC"/><stop offset="0.97" stop-color="#BAE2F4"/><stop offset="1" stop-color="#BAE2F4"/></linearGradient><linearGradient x1="2468.5" y1="2071" x2="2468.5" y2="2018" gradientUnits="userSpaceOnUse" spreadMethod="reflect" id="fill9"><stop offset="0" stop-color="#135574"/><stop offset="0.26" stop-color="#2090C2"/><stop offset="0.52" stop-color="#47B1E1"/><stop offset="0.75" stop-color="#8CCEEC"/><stop offset="0.97" stop-color="#BAE2F4"/><stop offset="1" stop-color="#BAE2F4"/></linearGradient><clipPath id="clip10"><rect x="2328" y="2223" width="40" height="41"/></clipPath><clipPath id="clip11"><rect x="2328" y="2223" width="40" height="41"/></clipPath><clipPath id="clip12"><rect x="2569" y="2223" width="45" height="41"/></clipPath><clipPath id="clip13"><rect x="2569" y="2223" width="45" height="41"/></clipPath></defs><g clip-path="url(#clip1)" transform="translate(-2302 -2018)"><g filter="url(#fx0)" transform="translate(2301 2028)"><g><path d="M65.817 241.108 268.183 241.108 268.183 241.25 65.817 241.25ZM120.199 20.2502 213.801 20.2502C215.978 20.2502 217.743 22.1811 217.743 24.563L217.743 33.1884 282.324 33.1884C299.818 33.1884 314 48.7036 314 67.8424L314 228.473C314 235.451 308.829 241.108 302.451 241.108L268.183 241.108 268.183 142.374 245.457 117.511 88.543 117.511 65.817 142.374 65.817 241.108 31.5494 241.108C25.1708 241.108 20 235.451 20 228.473L20 67.8424C20 48.7036 34.1817 33.1884 51.6757 33.1884L116.256 33.1884 116.256 24.563C116.256 22.1811 118.021 20.2502 120.199 20.2502Z" fill="#FF0000" fill-rule="evenodd"/></g></g><path d="M2366.82 2282.86 2569.18 2282.86 2569.18 2283 2366.82 2283ZM2421.2 2062 2514.8 2062C2516.98 2062 2518.74 2063.93 2518.74 2066.31L2518.74 2074.94 2583.32 2074.94C2600.82 2074.94 2615 2090.45 2615 2109.59L2615 2270.22C2615 2277.2 2609.83 2282.86 2603.45 2282.86L2569.18 2282.86 2569.18 2184.12 2546.46 2159.26 2389.54 2159.26 2366.82 2184.12 2366.82 2282.86 2332.55 2282.86C2326.17 2282.86 2321 2277.2 2321 2270.22L2321 2109.59C2321 2090.45 2335.18 2074.94 2352.68 2074.94L2417.26 2074.94 2417.26 2066.31C2417.26 2063.93 2419.02 2062 2421.2 2062Z" fill="url(#fill2)" fill-rule="evenodd"/><g clip-path="url(#clip3)"><g><g><path d="M8.71308 10.2917 13.4631 10.2917 13.4631 34.0417 8.71308 34.0417Z" fill="#048EC4" transform="matrix(1 0 0 1.07895 2329 2155)"/><path d="M29.2964 15.0417C30.1709 15.0417 30.8797 15.7505 30.8797 16.625L30.8797 27.7083C30.8797 28.5828 30.1709 29.2917 29.2964 29.2917L24.5464 29.2917C23.6719 29.2917 22.9631 28.5828 22.9631 27.7083L22.9631 16.625C22.9631 15.7505 23.6719 15.0417 24.5464 15.0417L29.2964 15.0417M29.2964 10.2917 24.5464 10.2917C21.0486 10.2917 18.2131 13.1272 18.2131 16.625L18.2131 27.7083C18.2131 31.2061 21.0486 34.0417 24.5464 34.0417L29.2964 34.0417C32.7942 34.0417 35.6297 31.2061 35.6297 27.7083L35.6297 16.625C35.6297 13.1272 32.7942 10.2917 29.2964 10.2917Z" fill="#048EC4" transform="matrix(1 0 0 1.07895 2329 2155)"/><path d="M40.3797 10.2917 45.1297 10.2917 45.1297 34.0417 40.3797 34.0417Z" fill="#048EC4" transform="matrix(1 0 0 1.07895 2329 2155)"/><path d="M60.9631 15.0417C61.8375 15.0417 62.5464 15.7505 62.5464 16.625L62.5464 27.7083C62.5464 28.5828 61.8375 29.2917 60.9631 29.2917L56.2131 29.2917C55.3386 29.2917 54.6297 28.5828 54.6297 27.7083L54.6297 16.625C54.6297 15.7505 55.3386 15.0417 56.2131 15.0417L60.9631 15.0417M60.9631 10.2917 56.2131 10.2917C52.7152 10.2917 49.8797 13.1272 49.8797 16.625L49.8797 27.7083C49.8797 31.2061 52.7152 34.0417 56.2131 34.0417L60.9631 34.0417C64.4609 34.0417 67.2964 31.2061 67.2964 27.7083L67.2964 16.625C67.2964 13.1272 64.4609 10.2917 60.9631 10.2917Z" fill="#048EC4" transform="matrix(1 0 0 1.07895 2329 2155)"/><path d="M8.71308 41.9583 13.4631 41.9583 13.4631 65.7083 8.71308 65.7083Z" fill="#048EC4" transform="matrix(1 0 0 1.07895 2329 2155)"/><path d="M29.2964 46.7083C30.1709 46.7083 30.8797 47.4172 30.8797 48.2916L30.8797 59.375C30.8797 60.2494 30.1709 60.9583 29.2964 60.9583L24.5464 60.9583C23.6719 60.9583 22.9631 60.2494 22.9631 59.375L22.9631 48.2916C22.9631 47.4172 23.6719 46.7083 24.5464 46.7083L29.2964 46.7083M29.2964 41.9583 24.5464 41.9583C21.0486 41.9583 18.2131 44.7938 18.2131 48.2916L18.2131 59.375C18.2131 62.8728 21.0486 65.7083 24.5464 65.7083L29.2964 65.7083C32.7942 65.7083 35.6297 62.8728 35.6297 59.375L35.6297 48.2916C35.6297 44.7938 32.7942 41.9583 29.2964 41.9583Z" fill="#048EC4" transform="matrix(1 0 0 1.07895 2329 2155)"/><path d="M40.3797 41.9583 45.1297 41.9583 45.1297 65.7083 40.3797 65.7083Z" fill="#048EC4" transform="matrix(1 0 0 1.07895 2329 2155)"/><path d="M60.9631 46.7083C61.8375 46.7083 62.5464 47.4172 62.5464 48.2916L62.5464 59.375C62.5464 60.2494 61.8375 60.9583 60.9631 60.9583L56.2131 60.9583C55.3386 60.9583 54.6297 60.2494 54.6297 59.375L54.6297 48.2916C54.6297 47.4172 55.3386 46.7083 56.2131 46.7083L60.9631 46.7083M60.9631 41.9583 56.2131 41.9583C52.7152 41.9583 49.8797 44.7938 49.8797 48.2916L49.8797 59.375C49.8797 62.8728 52.7152 65.7083 56.2131 65.7083L60.9631 65.7083C64.4609 65.7083 67.2964 62.8728 67.2964 59.375L67.2964 48.2916C67.2964 44.7938 64.4609 41.9583 60.9631 41.9583Z" fill="#048EC4" transform="matrix(1 0 0 1.07895 2329 2155)"/></g></g></g><g><g><g><path d="M8.71308 10.2917 13.4631 10.2917 13.4631 34.0417 8.71308 34.0417Z" fill="#048EC4" transform="matrix(1 0 0 1.07895 2329 2088)"/><path d="M29.2964 15.0417C30.1709 15.0417 30.8797 15.7505 30.8797 16.625L30.8797 27.7083C30.8797 28.5828 30.1709 29.2917 29.2964 29.2917L24.5464 29.2917C23.6719 29.2917 22.9631 28.5828 22.9631 27.7083L22.9631 16.625C22.9631 15.7505 23.6719 15.0417 24.5464 15.0417L29.2964 15.0417M29.2964 10.2917 24.5464 10.2917C21.0486 10.2917 18.2131 13.1272 18.2131 16.625L18.2131 27.7083C18.2131 31.2061 21.0486 34.0417 24.5464 34.0417L29.2964 34.0417C32.7942 34.0417 35.6297 31.2061 35.6297 27.7083L35.6297 16.625C35.6297 13.1272 32.7942 10.2917 29.2964 10.2917Z" fill="#048EC4" transform="matrix(1 0 0 1.07895 2329 2088)"/><path d="M40.3797 10.2917 45.1297 10.2917 45.1297 34.0417 40.3797 34.0417Z" fill="#048EC4" transform="matrix(1 0 0 1.07895 2329 2088)"/><path d="M60.9631 15.0417C61.8375 15.0417 62.5464 15.7505 62.5464 16.625L62.5464 27.7083C62.5464 28.5828 61.8375 29.2917 60.9631 29.2917L56.2131 29.2917C55.3386 29.2917 54.6297 28.5828 54.6297 27.7083L54.6297 16.625C54.6297 15.7505 55.3386 15.0417 56.2131 15.0417L60.9631 15.0417M60.9631 10.2917 56.2131 10.2917C52.7152 10.2917 49.8797 13.1272 49.8797 16.625L49.8797 27.7083C49.8797 31.2061 52.7152 34.0417 56.2131 34.0417L60.9631 34.0417C64.4609 34.0417 67.2964 31.2061 67.2964 27.7083L67.2964 16.625C67.2964 13.1272 64.4609 10.2917 60.9631 10.2917Z" fill="#048EC4" transform="matrix(1 0 0 1.07895 2329 2088)"/><path d="M8.71308 41.9583 13.4631 41.9583 13.4631 65.7083 8.71308 65.7083Z" fill="#048EC4" transform="matrix(1 0 0 1.07895 2329 2088)"/><path d="M29.2964 46.7083C30.1709 46.7083 30.8797 47.4172 30.8797 48.2916L30.8797 59.375C30.8797 60.2494 30.1709 60.9583 29.2964 60.9583L24.5464 60.9583C23.6719 60.9583 22.9631 60.2494 22.9631 59.375L22.9631 48.2916C22.9631 47.4172 23.6719 46.7083 24.5464 46.7083L29.2964 46.7083M29.2964 41.9583 24.5464 41.9583C21.0486 41.9583 18.2131 44.7938 18.2131 48.2916L18.2131 59.375C18.2131 62.8728 21.0486 65.7083 24.5464 65.7083L29.2964 65.7083C32.7942 65.7083 35.6297 62.8728 35.6297 59.375L35.6297 48.2916C35.6297 44.7938 32.7942 41.9583 29.2964 41.9583Z" fill="#048EC4" transform="matrix(1 0 0 1.07895 2329 2088)"/><path d="M40.3797 41.9583 45.1297 41.9583 45.1297 65.7083 40.3797 65.7083Z" fill="#048EC4" transform="matrix(1 0 0 1.07895 2329 2088)"/><path d="M60.9631 46.7083C61.8375 46.7083 62.5464 47.4172 62.5464 48.2916L62.5464 59.375C62.5464 60.2494 61.8375 60.9583 60.9631 60.9583L56.2131 60.9583C55.3386 60.9583 54.6297 60.2494 54.6297 59.375L54.6297 48.2916C54.6297 47.4172 55.3386 46.7083 56.2131 46.7083L60.9631 46.7083M60.9631 41.9583 56.2131 41.9583C52.7152 41.9583 49.8797 44.7938 49.8797 48.2916L49.8797 59.375C49.8797 62.8728 52.7152 65.7083 56.2131 65.7083L60.9631 65.7083C64.4609 65.7083 67.2964 62.8728 67.2964 59.375L67.2964 48.2916C67.2964 44.7938 64.4609 41.9583 60.9631 41.9583Z" fill="#048EC4" transform="matrix(1 0 0 1.07895 2329 2088)"/></g></g></g><g><g><g><path d="M8.71308 10.2917 13.4631 10.2917 13.4631 34.0417 8.71308 34.0417Z" fill="#048EC4" transform="matrix(1 0 0 1.07895 2399 2087)"/><path d="M29.2964 15.0417C30.1709 15.0417 30.8797 15.7505 30.8797 16.625L30.8797 27.7083C30.8797 28.5828 30.1709 29.2917 29.2964 29.2917L24.5464 29.2917C23.6719 29.2917 22.9631 28.5828 22.9631 27.7083L22.9631 16.625C22.9631 15.7505 23.6719 15.0417 24.5464 15.0417L29.2964 15.0417M29.2964 10.2917 24.5464 10.2917C21.0486 10.2917 18.2131 13.1272 18.2131 16.625L18.2131 27.7083C18.2131 31.2061 21.0486 34.0417 24.5464 34.0417L29.2964 34.0417C32.7942 34.0417 35.6297 31.2061 35.6297 27.7083L35.6297 16.625C35.6297 13.1272 32.7942 10.2917 29.2964 10.2917Z" fill="#048EC4" transform="matrix(1 0 0 1.07895 2399 2087)"/><path d="M40.3797 10.2917 45.1297 10.2917 45.1297 34.0417 40.3797 34.0417Z" fill="#048EC4" transform="matrix(1 0 0 1.07895 2399 2087)"/><path d="M60.9631 15.0417C61.8375 15.0417 62.5464 15.7505 62.5464 16.625L62.5464 27.7083C62.5464 28.5828 61.8375 29.2917 60.9631 29.2917L56.2131 29.2917C55.3386 29.2917 54.6297 28.5828 54.6297 27.7083L54.6297 16.625C54.6297 15.7505 55.3386 15.0417 56.2131 15.0417L60.9631 15.0417M60.9631 10.2917 56.2131 10.2917C52.7152 10.2917 49.8797 13.1272 49.8797 16.625L49.8797 27.7083C49.8797 31.2061 52.7152 34.0417 56.2131 34.0417L60.9631 34.0417C64.4609 34.0417 67.2964 31.2061 67.2964 27.7083L67.2964 16.625C67.2964 13.1272 64.4609 10.2917 60.9631 10.2917Z" fill="#048EC4" transform="matrix(1 0 0 1.07895 2399 2087)"/><path d="M8.71308 41.9583 13.4631 41.9583 13.4631 65.7083 8.71308 65.7083Z" fill="#048EC4" transform="matrix(1 0 0 1.07895 2399 2087)"/><path d="M29.2964 46.7083C30.1709 46.7083 30.8797 47.4172 30.8797 48.2916L30.8797 59.375C30.8797 60.2494 30.1709 60.9583 29.2964 60.9583L24.5464 60.9583C23.6719 60.9583 22.9631 60.2494 22.9631 59.375L22.9631 48.2916C22.9631 47.4172 23.6719 46.7083 24.5464 46.7083L29.2964 46.7083M29.2964 41.9583 24.5464 41.9583C21.0486 41.9583 18.2131 44.7938 18.2131 48.2916L18.2131 59.375C18.2131 62.8728 21.0486 65.7083 24.5464 65.7083L29.2964 65.7083C32.7942 65.7083 35.6297 62.8728 35.6297 59.375L35.6297 48.2916C35.6297 44.7938 32.7942 41.9583 29.2964 41.9583Z" fill="#048EC4" transform="matrix(1 0 0 1.07895 2399 2087)"/><path d="M40.3797 41.9583 45.1297 41.9583 45.1297 65.7083 40.3797 65.7083Z" fill="#048EC4" transform="matrix(1 0 0 1.07895 2399 2087)"/><path d="M60.9631 46.7083C61.8375 46.7083 62.5464 47.4172 62.5464 48.2916L62.5464 59.375C62.5464 60.2494 61.8375 60.9583 60.9631 60.9583L56.2131 60.9583C55.3386 60.9583 54.6297 60.2494 54.6297 59.375L54.6297 48.2916C54.6297 47.4172 55.3386 46.7083 56.2131 46.7083L60.9631 46.7083M60.9631 41.9583 56.2131 41.9583C52.7152 41.9583 49.8797 44.7938 49.8797 48.2916L49.8797 59.375C49.8797 62.8728 52.7152 65.7083 56.2131 65.7083L60.9631 65.7083C64.4609 65.7083 67.2964 62.8728 67.2964 59.375L67.2964 48.2916C67.2964 44.7938 64.4609 41.9583 60.9631 41.9583Z" fill="#048EC4" transform="matrix(1 0 0 1.07895 2399 2087)"/></g></g></g><g><g><g><path d="M8.59843 10.1562 13.2859 10.1562 13.2859 33.5937 8.59843 33.5937Z" fill="#048EC4" transform="matrix(1 0 0 1.09334 2469 2088)"/><path d="M28.9109 14.8437C29.7739 14.8437 30.4734 15.5433 30.4734 16.4062L30.4734 27.3437C30.4734 28.2067 29.7739 28.9062 28.9109 28.9062L24.2234 28.9062C23.3604 28.9062 22.6609 28.2067 22.6609 27.3437L22.6609 16.4062C22.6609 15.5433 23.3604 14.8437 24.2234 14.8437L28.9109 14.8437M28.9109 10.1562 24.2234 10.1562C20.7716 10.1562 17.9734 12.9544 17.9734 16.4062L17.9734 27.3437C17.9734 30.7955 20.7716 33.5937 24.2234 33.5937L28.9109 33.5937C32.3627 33.5937 35.1609 30.7955 35.1609 27.3437L35.1609 16.4062C35.1609 12.9544 32.3627 10.1562 28.9109 10.1562Z" fill="#048EC4" transform="matrix(1 0 0 1.09334 2469 2088)"/><path d="M39.8484 10.1562 44.5359 10.1562 44.5359 33.5937 39.8484 33.5937Z" fill="#048EC4" transform="matrix(1 0 0 1.09334 2469 2088)"/><path d="M60.1609 14.8437C61.0239 14.8437 61.7234 15.5433 61.7234 16.4062L61.7234 27.3437C61.7234 28.2067 61.0239 28.9062 60.1609 28.9062L55.4734 28.9062C54.6104 28.9062 53.9109 28.2067 53.9109 27.3437L53.9109 16.4062C53.9109 15.5433 54.6104 14.8437 55.4734 14.8437L60.1609 14.8437M60.1609 10.1562 55.4734 10.1562C52.0216 10.1562 49.2234 12.9544 49.2234 16.4062L49.2234 27.3437C49.2234 30.7955 52.0216 33.5937 55.4734 33.5937L60.1609 33.5937C63.6127 33.5937 66.4109 30.7955 66.4109 27.3437L66.4109 16.4062C66.4109 12.9544 63.6127 10.1562 60.1609 10.1562Z" fill="#048EC4" transform="matrix(1 0 0 1.09334 2469 2088)"/><path d="M8.59843 41.4062 13.2859 41.4062 13.2859 64.8437 8.59843 64.8437Z" fill="#048EC4" transform="matrix(1 0 0 1.09334 2469 2088)"/><path d="M28.9109 46.0937C29.7739 46.0937 30.4734 46.7932 30.4734 47.6562L30.4734 58.5937C30.4734 59.4567 29.7739 60.1562 28.9109 60.1562L24.2234 60.1562C23.3604 60.1562 22.6609 59.4567 22.6609 58.5937L22.6609 47.6562C22.6609 46.7932 23.3604 46.0937 24.2234 46.0937L28.9109 46.0937M28.9109 41.4062 24.2234 41.4062C20.7716 41.4062 17.9734 44.2044 17.9734 47.6562L17.9734 58.5937C17.9734 62.0455 20.7716 64.8437 24.2234 64.8437L28.9109 64.8437C32.3627 64.8437 35.1609 62.0455 35.1609 58.5937L35.1609 47.6562C35.1609 44.2044 32.3627 41.4062 28.9109 41.4062Z" fill="#048EC4" transform="matrix(1 0 0 1.09334 2469 2088)"/><path d="M39.8484 41.4062 44.5359 41.4062 44.5359 64.8437 39.8484 64.8437Z" fill="#048EC4" transform="matrix(1 0 0 1.09334 2469 2088)"/><path d="M60.1609 46.0937C61.0239 46.0937 61.7234 46.7932 61.7234 47.6562L61.7234 58.5937C61.7234 59.4567 61.0239 60.1562 60.1609 60.1562L55.4734 60.1562C54.6104 60.1562 53.9109 59.4567 53.9109 58.5937L53.9109 47.6562C53.9109 46.7932 54.6104 46.0937 55.4734 46.0937L60.1609 46.0937M60.1609 41.4062 55.4734 41.4062C52.0216 41.4062 49.2234 44.2044 49.2234 47.6562L49.2234 58.5937C49.2234 62.0455 52.0216 64.8437 55.4734 64.8437L60.1609 64.8437C63.6127 64.8437 66.4109 62.0455 66.4109 58.5937L66.4109 47.6562C66.4109 44.2044 63.6127 41.4062 60.1609 41.4062Z" fill="#048EC4" transform="matrix(1 0 0 1.09334 2469 2088)"/></g></g></g><g><g><g><path d="M8.59843 10.1562 13.2859 10.1562 13.2859 33.5937 8.59843 33.5937Z" fill="#048EC4" transform="matrix(1 0 0 1.09334 2539 2087)"/><path d="M28.9109 14.8437C29.7739 14.8437 30.4734 15.5433 30.4734 16.4062L30.4734 27.3437C30.4734 28.2067 29.7739 28.9062 28.9109 28.9062L24.2234 28.9062C23.3604 28.9062 22.6609 28.2067 22.6609 27.3437L22.6609 16.4062C22.6609 15.5433 23.3604 14.8437 24.2234 14.8437L28.9109 14.8437M28.9109 10.1562 24.2234 10.1562C20.7716 10.1562 17.9734 12.9544 17.9734 16.4062L17.9734 27.3437C17.9734 30.7955 20.7716 33.5937 24.2234 33.5937L28.9109 33.5937C32.3627 33.5937 35.1609 30.7955 35.1609 27.3437L35.1609 16.4062C35.1609 12.9544 32.3627 10.1562 28.9109 10.1562Z" fill="#048EC4" transform="matrix(1 0 0 1.09334 2539 2087)"/><path d="M39.8484 10.1562 44.5359 10.1562 44.5359 33.5937 39.8484 33.5937Z" fill="#048EC4" transform="matrix(1 0 0 1.09334 2539 2087)"/><path d="M60.1609 14.8437C61.0239 14.8437 61.7234 15.5433 61.7234 16.4062L61.7234 27.3437C61.7234 28.2067 61.0239 28.9062 60.1609 28.9062L55.4734 28.9062C54.6104 28.9062 53.9109 28.2067 53.9109 27.3437L53.9109 16.4062C53.9109 15.5433 54.6104 14.8437 55.4734 14.8437L60.1609 14.8437M60.1609 10.1562 55.4734 10.1562C52.0216 10.1562 49.2234 12.9544 49.2234 16.4062L49.2234 27.3437C49.2234 30.7955 52.0216 33.5937 55.4734 33.5937L60.1609 33.5937C63.6127 33.5937 66.4109 30.7955 66.4109 27.3437L66.4109 16.4062C66.4109 12.9544 63.6127 10.1562 60.1609 10.1562Z" fill="#048EC4" transform="matrix(1 0 0 1.09334 2539 2087)"/><path d="M8.59843 41.4062 13.2859 41.4062 13.2859 64.8437 8.59843 64.8437Z" fill="#048EC4" transform="matrix(1 0 0 1.09334 2539 2087)"/><path d="M28.9109 46.0937C29.7739 46.0937 30.4734 46.7932 30.4734 47.6562L30.4734 58.5937C30.4734 59.4567 29.7739 60.1562 28.9109 60.1562L24.2234 60.1562C23.3604 60.1562 22.6609 59.4567 22.6609 58.5937L22.6609 47.6562C22.6609 46.7932 23.3604 46.0937 24.2234 46.0937L28.9109 46.0937M28.9109 41.4062 24.2234 41.4062C20.7716 41.4062 17.9734 44.2044 17.9734 47.6562L17.9734 58.5937C17.9734 62.0455 20.7716 64.8437 24.2234 64.8437L28.9109 64.8437C32.3627 64.8437 35.1609 62.0455 35.1609 58.5937L35.1609 47.6562C35.1609 44.2044 32.3627 41.4062 28.9109 41.4062Z" fill="#048EC4" transform="matrix(1 0 0 1.09334 2539 2087)"/><path d="M39.8484 41.4062 44.5359 41.4062 44.5359 64.8437 39.8484 64.8437Z" fill="#048EC4" transform="matrix(1 0 0 1.09334 2539 2087)"/><path d="M60.1609 46.0937C61.0239 46.0937 61.7234 46.7932 61.7234 47.6562L61.7234 58.5937C61.7234 59.4567 61.0239 60.1562 60.1609 60.1562L55.4734 60.1562C54.6104 60.1562 53.9109 59.4567 53.9109 58.5937L53.9109 47.6562C53.9109 46.7932 54.6104 46.0937 55.4734 46.0937L60.1609 46.0937M60.1609 41.4062 55.4734 41.4062C52.0216 41.4062 49.2234 44.2044 49.2234 47.6562L49.2234 58.5937C49.2234 62.0455 52.0216 64.8437 55.4734 64.8437L60.1609 64.8437C63.6127 64.8437 66.4109 62.0455 66.4109 58.5937L66.4109 47.6562C66.4109 44.2044 63.6127 41.4062 60.1609 41.4062Z" fill="#048EC4" transform="matrix(1 0 0 1.09334 2539 2087)"/></g></g></g><g clip-path="url(#clip4)"><g><g><path d="M8.59843 10.1562 13.2859 10.1562 13.2859 33.5937 8.59843 33.5937Z" fill="#048EC4" transform="matrix(1 0 0 1.09334 2539 2155)"/><path d="M28.9109 14.8437C29.7739 14.8437 30.4734 15.5433 30.4734 16.4062L30.4734 27.3437C30.4734 28.2067 29.7739 28.9062 28.9109 28.9062L24.2234 28.9062C23.3604 28.9062 22.6609 28.2067 22.6609 27.3437L22.6609 16.4062C22.6609 15.5433 23.3604 14.8437 24.2234 14.8437L28.9109 14.8437M28.9109 10.1562 24.2234 10.1562C20.7716 10.1562 17.9734 12.9544 17.9734 16.4062L17.9734 27.3437C17.9734 30.7955 20.7716 33.5937 24.2234 33.5937L28.9109 33.5937C32.3627 33.5937 35.1609 30.7955 35.1609 27.3437L35.1609 16.4062C35.1609 12.9544 32.3627 10.1562 28.9109 10.1562Z" fill="#048EC4" transform="matrix(1 0 0 1.09334 2539 2155)"/><path d="M39.8484 10.1562 44.5359 10.1562 44.5359 33.5937 39.8484 33.5937Z" fill="#048EC4" transform="matrix(1 0 0 1.09334 2539 2155)"/><path d="M60.1609 14.8437C61.0239 14.8437 61.7234 15.5433 61.7234 16.4062L61.7234 27.3437C61.7234 28.2067 61.0239 28.9062 60.1609 28.9062L55.4734 28.9062C54.6104 28.9062 53.9109 28.2067 53.9109 27.3437L53.9109 16.4062C53.9109 15.5433 54.6104 14.8437 55.4734 14.8437L60.1609 14.8437M60.1609 10.1562 55.4734 10.1562C52.0216 10.1562 49.2234 12.9544 49.2234 16.4062L49.2234 27.3437C49.2234 30.7955 52.0216 33.5937 55.4734 33.5937L60.1609 33.5937C63.6127 33.5937 66.4109 30.7955 66.4109 27.3437L66.4109 16.4062C66.4109 12.9544 63.6127 10.1562 60.1609 10.1562Z" fill="#048EC4" transform="matrix(1 0 0 1.09334 2539 2155)"/><path d="M8.59843 41.4062 13.2859 41.4062 13.2859 64.8437 8.59843 64.8437Z" fill="#048EC4" transform="matrix(1 0 0 1.09334 2539 2155)"/><path d="M28.9109 46.0937C29.7739 46.0937 30.4734 46.7932 30.4734 47.6562L30.4734 58.5937C30.4734 59.4567 29.7739 60.1562 28.9109 60.1562L24.2234 60.1562C23.3604 60.1562 22.6609 59.4567 22.6609 58.5937L22.6609 47.6562C22.6609 46.7932 23.3604 46.0937 24.2234 46.0937L28.9109 46.0937M28.9109 41.4062 24.2234 41.4062C20.7716 41.4062 17.9734 44.2044 17.9734 47.6562L17.9734 58.5937C17.9734 62.0455 20.7716 64.8437 24.2234 64.8437L28.9109 64.8437C32.3627 64.8437 35.1609 62.0455 35.1609 58.5937L35.1609 47.6562C35.1609 44.2044 32.3627 41.4062 28.9109 41.4062Z" fill="#048EC4" transform="matrix(1 0 0 1.09334 2539 2155)"/><path d="M39.8484 41.4062 44.5359 41.4062 44.5359 64.8437 39.8484 64.8437Z" fill="#048EC4" transform="matrix(1 0 0 1.09334 2539 2155)"/><path d="M60.1609 46.0937C61.0239 46.0937 61.7234 46.7932 61.7234 47.6562L61.7234 58.5937C61.7234 59.4567 61.0239 60.1562 60.1609 60.1562L55.4734 60.1562C54.6104 60.1562 53.9109 59.4567 53.9109 58.5937L53.9109 47.6562C53.9109 46.7932 54.6104 46.0937 55.4734 46.0937L60.1609 46.0937M60.1609 41.4062 55.4734 41.4062C52.0216 41.4062 49.2234 44.2044 49.2234 47.6562L49.2234 58.5937C49.2234 62.0455 52.0216 64.8437 55.4734 64.8437L60.1609 64.8437C63.6127 64.8437 66.4109 62.0455 66.4109 58.5937L66.4109 47.6562C66.4109 44.2044 63.6127 41.4062 60.1609 41.4062Z" fill="#048EC4" transform="matrix(1 0 0 1.09334 2539 2155)"/></g></g></g><rect x="2451" y="2057" width="35" height="14" fill="url(#fill5)"/><rect x="2451" y="2042" width="35" height="9.99988" fill="url(#fill6)"/><rect x="2451" y="2033" width="35" height="4.00012" fill="url(#fill7)"/><rect x="2451" y="2025" width="35" height="2.00012" fill="url(#fill8)"/><rect x="2451" y="2018" width="35" height="0.999634" fill="url(#fill9)"/><g clip-path="url(#clip10)"><g clip-path="url(#clip11)"><g><path d="M8.61201 10.1723 13.3069 10.1723 13.3069 33.6468 8.61202 33.6468Z" fill="#048EC4" transform="matrix(1 0 0 1.08355 2329 2223)"/><path d="M28.9566 14.8672C29.8209 14.8672 30.5216 15.5678 30.5216 16.4322L30.5216 27.3869C30.5216 28.2513 29.8209 28.9519 28.9566 28.9519L24.2617 28.9519C23.3974 28.9519 22.6967 28.2513 22.6967 27.3869L22.6967 16.4322C22.6967 15.5678 23.3974 14.8672 24.2617 14.8672L28.9566 14.8672M28.9566 10.1723 24.2617 10.1723C20.8044 10.1723 18.0018 12.9749 18.0018 16.4322L18.0018 27.3869C18.0018 30.8442 20.8044 33.6468 24.2617 33.6468L28.9566 33.6468C32.4138 33.6468 35.2165 30.8442 35.2165 27.3869L35.2165 16.4322C35.2165 12.9749 32.4138 10.1723 28.9566 10.1723Z" fill="#048EC4" transform="matrix(1 0 0 1.08355 2329 2223)"/><path d="M39.9114 10.1723 44.6063 10.1723 44.6063 33.6468 39.9114 33.6468Z" fill="#048EC4" transform="matrix(1 0 0 1.08355 2329 2223)"/><path d="M60.2559 14.8672C61.1203 14.8672 61.8209 15.5678 61.8209 16.4322L61.8209 27.3869C61.8209 28.2513 61.1203 28.9519 60.2559 28.9519L55.561 28.9519C54.6967 28.9519 53.9961 28.2513 53.9961 27.3869L53.9961 16.4322C53.9961 15.5678 54.6967 14.8672 55.561 14.8672L60.2559 14.8672M60.2559 10.1723 55.561 10.1723C52.1038 10.1723 49.3012 12.9749 49.3012 16.4322L49.3012 27.3869C49.3012 30.8442 52.1038 33.6468 55.561 33.6468L60.2559 33.6468C63.7132 33.6468 66.5158 30.8442 66.5158 27.3869L66.5158 16.4322C66.5158 12.9749 63.7132 10.1723 60.2559 10.1723Z" fill="#048EC4" transform="matrix(1 0 0 1.08355 2329 2223)"/><path d="M8.61201 41.4716 13.3069 41.4716 13.3069 64.9461 8.61202 64.9461Z" fill="#048EC4" transform="matrix(1 0 0 1.08355 2329 2223)"/><path d="M28.9566 46.1665C29.8209 46.1665 30.5216 46.8672 30.5216 47.7315L30.5216 58.6863C30.5216 59.5506 29.8209 60.2512 28.9566 60.2512L24.2617 60.2512C23.3974 60.2512 22.6967 59.5506 22.6967 58.6863L22.6967 47.7315C22.6967 46.8672 23.3974 46.1665 24.2617 46.1665L28.9566 46.1665M28.9566 41.4716 24.2617 41.4716C20.8044 41.4716 18.0018 44.2743 18.0018 47.7315L18.0018 58.6863C18.0018 62.1435 20.8044 64.9461 24.2617 64.9461L28.9566 64.9461C32.4138 64.9461 35.2165 62.1435 35.2165 58.6863L35.2165 47.7315C35.2165 44.2743 32.4138 41.4716 28.9566 41.4716Z" fill="#048EC4" transform="matrix(1 0 0 1.08355 2329 2223)"/><path d="M39.9114 41.4716 44.6063 41.4716 44.6063 64.9461 39.9114 64.9461Z" fill="#048EC4" transform="matrix(1 0 0 1.08355 2329 2223)"/><path d="M60.2559 46.1665C61.1203 46.1665 61.8209 46.8672 61.8209 47.7315L61.8209 58.6863C61.8209 59.5506 61.1203 60.2512 60.2559 60.2512L55.561 60.2512C54.6967 60.2512 53.9961 59.5506 53.9961 58.6863L53.9961 47.7315C53.9961 46.8672 54.6967 46.1665 55.561 46.1665L60.2559 46.1665M60.2559 41.4716 55.561 41.4716C52.1038 41.4716 49.3012 44.2743 49.3012 47.7315L49.3012 58.6863C49.3012 62.1435 52.1038 64.9461 55.561 64.9461L60.2559 64.9461C63.7132 64.9461 66.5158 62.1435 66.5158 58.6863L66.5158 47.7315C66.5158 44.2743 63.7132 41.4716 60.2559 41.4716Z" fill="#048EC4" transform="matrix(1 0 0 1.08355 2329 2223)"/></g></g></g><g clip-path="url(#clip12)"><g clip-path="url(#clip13)"><g><path d="M8.59311 10.15 13.2777 10.15 13.2777 33.573 8.59312 33.573Z" fill="#048EC4" transform="matrix(1 0 0 1.08593 2539.05 2223)"/><path d="M28.893 14.8346C29.7555 14.8346 30.4546 15.5337 30.4546 16.3961L30.4546 27.3268C30.4546 28.1893 29.7555 28.8884 28.893 28.8884L24.2084 28.8884C23.346 28.8884 22.6469 28.1893 22.6469 27.3268L22.6469 16.3961C22.6469 15.5337 23.346 14.8346 24.2084 14.8346L28.893 14.8346M28.893 10.15 24.2084 10.15C20.7588 10.15 17.9623 12.9464 17.9623 16.3961L17.9623 27.3268C17.9623 30.7765 20.7588 33.573 24.2084 33.573L28.893 33.573C32.3427 33.573 35.1392 30.7765 35.1392 27.3268L35.1392 16.3961C35.1392 12.9464 32.3427 10.15 28.893 10.15Z" fill="#048EC4" transform="matrix(1 0 0 1.08593 2539.05 2223)"/><path d="M39.8238 10.15 44.5084 10.15 44.5084 33.573 39.8238 33.573Z" fill="#048EC4" transform="matrix(1 0 0 1.08593 2539.05 2223)"/><path d="M60.1237 14.8346C60.9861 14.8346 61.6852 15.5337 61.6852 16.3961L61.6852 27.3268C61.6852 28.1893 60.9861 28.8884 60.1237 28.8884L55.4391 28.8884C54.5767 28.8884 53.8776 28.1893 53.8776 27.3268L53.8776 16.3961C53.8776 15.5337 54.5767 14.8346 55.4391 14.8346L60.1237 14.8346M60.1237 10.15 55.4391 10.15C51.9894 10.15 49.193 12.9464 49.193 16.3961L49.193 27.3268C49.193 30.7765 51.9894 33.573 55.4391 33.573L60.1237 33.573C63.5734 33.573 66.3698 30.7765 66.3698 27.3268L66.3698 16.3961C66.3698 12.9464 63.5734 10.15 60.1237 10.15Z" fill="#048EC4" transform="matrix(1 0 0 1.08593 2539.05 2223)"/><path d="M8.59311 41.3806 13.2777 41.3806 13.2777 64.8036 8.59312 64.8036Z" fill="#048EC4" transform="matrix(1 0 0 1.08593 2539.05 2223)"/><path d="M28.893 46.0652C29.7555 46.0652 30.4546 46.7643 30.4546 47.6268L30.4546 58.5575C30.4546 59.4199 29.7555 60.119 28.893 60.119L24.2084 60.119C23.346 60.119 22.6469 59.4199 22.6469 58.5575L22.6469 47.6268C22.6469 46.7643 23.346 46.0652 24.2084 46.0652L28.893 46.0652M28.893 41.3806 24.2084 41.3806C20.7588 41.3806 17.9623 44.1771 17.9623 47.6268L17.9623 58.5575C17.9623 62.0071 20.7588 64.8036 24.2084 64.8036L28.893 64.8036C32.3427 64.8036 35.1392 62.0071 35.1392 58.5575L35.1392 47.6268C35.1392 44.1771 32.3427 41.3806 28.893 41.3806Z" fill="#048EC4" transform="matrix(1 0 0 1.08593 2539.05 2223)"/><path d="M39.8238 41.3806 44.5084 41.3806 44.5084 64.8036 39.8238 64.8036Z" fill="#048EC4" transform="matrix(1 0 0 1.08593 2539.05 2223)"/><path d="M60.1237 46.0652C60.9861 46.0652 61.6852 46.7643 61.6852 47.6268L61.6852 58.5575C61.6852 59.4199 60.9861 60.119 60.1237 60.119L55.4391 60.119C54.5767 60.119 53.8776 59.4199 53.8776 58.5575L53.8776 47.6268C53.8776 46.7643 54.5767 46.0652 55.4391 46.0652L60.1237 46.0652M60.1237 41.3806 55.4391 41.3806C51.9894 41.3806 49.193 44.1771 49.193 47.6268L49.193 58.5575C49.193 62.0071 51.9894 64.8036 55.4391 64.8036L60.1237 64.8036C63.5734 64.8036 66.3698 62.0071 66.3698 58.5575L66.3698 47.6268C66.3698 44.1771 63.5734 41.3806 60.1237 41.3806Z" fill="#048EC4" transform="matrix(1 0 0 1.08593 2539.05 2223)"/></g></g></g><text fill="#FFFFFF" font-family="Segoe UI Black,Segoe UI Black_MSFontService,sans-serif" font-weight="900" font-size="37" transform="matrix(1 0 0 1 2419.83 2106)">SMIA </text><text fill="#FFFFFF" font-family="Segoe UI Black,Segoe UI Black_MSFontService,sans-serif" font-weight="900" font-size="37" transform="matrix(1 0 0 1 2386.6 2150)">Operator</text><path d="M2413.29 2170.5 2523.71 2170.5 2544.5 2191.29 2544.5 2283.5 2544.5 2283.5 2392.5 2283.5 2392.5 2283.5 2392.5 2191.29Z" stroke="#A6A6A6" stroke-width="6.875" stroke-miterlimit="8" fill="#D9D9D9" fill-rule="evenodd"/><g><g><g><path d="M11.8945 28.4524 103.246 28.4524 103.246 64.2209 11.8945 64.2209 11.8945 28.4524 11.8945 28.4524ZM55.9514 35.8346 62.7672 35.8346 62.7672 48.9846C62.7672 50.2874 62.5595 51.5146 62.1536 52.6757 61.7476 53.8368 61.1151 54.8469 60.2467 55.7154 59.3782 56.5839 58.4719 57.1881 57.5185 57.5468 56.1969 58.0377 54.6015 58.2831 52.7418 58.2831 51.6656 58.2831 50.495 58.2076 49.2301 58.0566 47.9651 57.9055 46.8984 57.6129 46.0488 57.1597 45.1992 56.7161 44.4156 56.0836 43.7076 55.2623 42.9996 54.441 42.5182 53.5914 42.2538 52.7229 41.829 51.3163 41.6214 50.0797 41.6214 48.9941L41.6214 35.8346 48.4371 35.8346 48.4371 49.2962C48.4371 50.495 48.7675 51.4391 49.4378 52.1093 50.108 52.789 51.0331 53.1288 52.2131 53.1288 53.3837 53.1288 54.2994 52.7984 54.9696 52.1282 55.6305 51.4674 55.9703 50.5234 55.9703 49.2962L55.9703 35.8346 55.9514 35.8346ZM67.5439 35.8346 74.3879 35.8346 74.3879 57.9055 67.5439 57.9055 67.5439 35.8346 67.5439 35.8346ZM7.85416 0 108.146 0C112.469 0 116 3.53059 116 7.85416L116 82.3082C116 86.6223 112.469 90.1623 108.146 90.1623L7.85416 90.1623C3.53059 90.1623 0 86.6317 0 82.3082L0 7.85416C0 3.53059 3.53059 0 7.85416 0L7.85416 0ZM111.365 21.986 4.99381 21.986 4.99381 83.0728C4.99381 83.677 5.22981 84.2056 5.62629 84.6115 6.02278 85.0175 6.56086 85.244 7.16503 85.244L109.156 85.244C109.76 85.244 110.289 85.008 110.695 84.6115 111.1 84.2056 111.327 83.677 111.327 83.0728L111.327 21.986 111.365 21.986 111.365 21.986ZM100.669 8.82648C102.812 8.82648 104.549 10.5635 104.549 12.7064 104.549 14.8493 102.812 16.5862 100.669 16.5862 98.5262 16.5862 96.7892 14.8493 96.7892 12.7064 96.7987 10.5635 98.5357 8.82648 100.669 8.82648L100.669 8.82648ZM74.3879 8.82648C76.5308 8.82648 78.2678 10.5635 78.2678 12.7064 78.2678 14.8493 76.5308 16.5862 74.3879 16.5862 72.245 16.5862 70.508 14.8493 70.508 12.7064 70.508 10.5635 72.245 8.82648 74.3879 8.82648L74.3879 8.82648ZM87.5285 8.82648C89.6714 8.82648 91.4084 10.5635 91.4084 12.7064 91.4084 14.8493 89.6714 16.5862 87.5285 16.5862 85.3856 16.5862 83.6486 14.8493 83.6486 12.7064 83.6486 10.5635 85.3856 8.82648 87.5285 8.82648L87.5285 8.82648ZM63.1259 78.9947C61.4455 78.9947 60.0862 77.5126 60.0862 75.6907 60.0862 73.8593 61.4455 72.3866 63.1259 72.3866L100.556 72.3866C102.236 72.3866 103.596 73.8687 103.596 75.6907 103.596 77.522 102.236 78.9947 100.556 78.9947L63.1259 78.9947 63.1259 78.9947ZM14.1224 78.9947C12.4609 78.9947 11.111 77.5126 11.111 75.6907 11.111 73.8593 12.4609 72.3866 14.1224 72.3866L48.8242 72.3866C50.4856 72.3866 51.8355 73.8687 51.8355 75.6907 51.8355 77.522 50.4856 78.9947 48.8242 78.9947L14.1224 78.9947 14.1224 78.9947Z" fill-rule="evenodd" transform="matrix(1 0 0 1.00512 2410 2180.19)"/></g></g></g></g></svg>