<svg width="2225" height="1769" xmlns="http://www.w3.org/2000/svg" xmlns:xlink="http://www.w3.org/1999/xlink" xml:space="preserve" overflow="hidden"><defs><filter id="fx0" x="-10%" y="-10%" width="120%" height="120%" filterUnits="userSpaceOnUse" primitiveUnits="userSpaceOnUse"><feComponentTransfer color-interpolation-filters="sRGB"><feFuncR type="discrete" tableValues="0 0"/><feFuncG type="discrete" tableValues="0 0"/><feFuncB type="discrete" tableValues="0 0"/><feFuncA type="linear" slope="0.4" intercept="0"/></feComponentTransfer><feGaussianBlur stdDeviation="6.11111 6.11111"/></filter><clipPath id="clip1"><rect x="1463" y="87" width="2225" height="1769"/></clipPath></defs><g clip-path="url(#clip1)" transform="translate(-1463 -87)"><g filter="url(#fx0)" transform="translate(1462 355)"><g><path d="M765.355 20.2501 1461.64 20.2501C1477.84 20.2501 1490.97 33.0323 1490.97 48.799L1490.97 105.897 1971.37 105.897C2101.5 105.897 2207 208.601 2207 335.293L2207 1398.61C2207 1444.8 2168.54 1482.25 2121.09 1482.25L1866.18 1482.25 1866.18 828.668 1697.12 664.085 529.874 664.085 360.821 828.668 360.821 1482.25 105.913 1482.25C58.4646 1482.25 19.9999 1444.8 19.9999 1398.61L19.9999 335.293C19.9999 208.601 125.495 105.897 255.628 105.897L736.03 105.897 736.03 48.799C736.03 33.0323 749.16 20.2501 765.355 20.2501Z" fill="#47A824" fill-rule="evenodd"/></g></g><path d="M2227.35 389 2923.64 389C2939.84 389 2952.97 401.782 2952.97 417.549L2952.97 474.647 3433.37 474.647C3563.5 474.647 3669 577.351 3669 704.043L3669 1767.36C3669 1813.55 3630.54 1851 3583.09 1851L3328.18 1851 3328.18 1197.42 3159.12 1032.83 1991.87 1032.83 1822.82 1197.42 1822.82 1851 1567.91 1851C1520.46 1851 1482 1813.55 1482 1767.36L1482 704.043C1482 577.351 1587.49 474.647 1717.63 474.647L2198.03 474.647 2198.03 417.549C2198.03 401.782 2211.16 389 2227.35 389Z" fill="#47A824" fill-rule="evenodd"/><path d="M1604 1085 1639 1085 1639 1255 1604 1255Z" fill="#38861C" fill-rule="evenodd"/><path d="M1756.09 1119C1762.57 1119 1767.82 1124.07 1767.82 1130.33L1767.82 1209.67C1767.82 1215.93 1762.57 1221 1756.09 1221L1720.91 1221C1714.43 1221 1709.18 1215.93 1709.18 1209.67L1709.18 1130.33C1709.18 1124.07 1714.43 1119 1720.91 1119L1756.09 1119M1756.09 1085 1720.91 1085C1695 1085 1674 1105.3 1674 1130.33L1674 1209.67C1674 1234.7 1695 1255 1720.91 1255L1756.09 1255C1782 1255 1803 1234.7 1803 1209.67L1803 1130.33C1803 1105.3 1782 1085 1756.09 1085Z" fill="#38861C" fill-rule="evenodd"/><path d="M1604 1312 1639 1312 1639 1482 1604 1482Z" fill="#38861C" fill-rule="evenodd"/><path d="M1756.09 1346C1762.57 1346 1767.82 1351.07 1767.82 1357.33L1767.82 1436.67C1767.82 1442.93 1762.57 1448 1756.09 1448L1720.91 1448C1714.43 1448 1709.18 1442.93 1709.18 1436.67L1709.18 1357.33C1709.18 1351.07 1714.43 1346 1720.91 1346L1756.09 1346M1756.09 1312 1720.91 1312C1695 1312 1674 1332.3 1674 1357.33L1674 1436.67C1674 1461.7 1695 1482 1720.91 1482L1756.09 1482C1782 1482 1803 1461.7 1803 1436.67L1803 1357.33C1803 1332.3 1782 1312 1756.09 1312Z" fill="#38861C" fill-rule="evenodd"/><g><g><g><path d="M62.482 73.8021 96.5444 73.8021 96.5444 244.115 62.482 244.115Z" fill="#38861C" transform="matrix(1.02752 0 0 1 1540 563)"/><path d="M210.086 107.865C216.357 107.865 221.44 112.948 221.44 119.219L221.44 198.698C221.44 204.969 216.357 210.052 210.086 210.052L176.024 210.052C169.753 210.052 164.669 204.969 164.669 198.698L164.669 119.219C164.669 112.948 169.753 107.865 176.024 107.865L210.086 107.865M210.086 73.8021 176.024 73.8021C150.941 73.8021 130.607 94.1357 130.607 119.219L130.607 198.698C130.607 223.781 150.941 244.115 176.024 244.115L210.086 244.115C235.169 244.115 255.503 223.781 255.503 198.698L255.503 119.219C255.503 94.1357 235.169 73.8021 210.086 73.8021Z" fill="#38861C" transform="matrix(1.02752 0 0 1 1540 563)"/><path d="M289.565 73.8021 323.628 73.8021 323.628 244.115 289.565 244.115Z" fill="#38861C" transform="matrix(1.02752 0 0 1 1540 563)"/><path d="M437.169 107.865C443.44 107.865 448.523 112.948 448.523 119.219L448.523 198.698C448.523 204.969 443.44 210.052 437.169 210.052L403.107 210.052C396.836 210.052 391.753 204.969 391.753 198.698L391.753 119.219C391.753 112.948 396.836 107.865 403.107 107.865L437.169 107.865M437.169 73.8021 403.107 73.8021C378.024 73.8021 357.69 94.1357 357.69 119.219L357.69 198.698C357.69 223.781 378.024 244.115 403.107 244.115L437.169 244.115C462.252 244.115 482.586 223.781 482.586 198.698L482.586 119.219C482.586 94.1357 462.252 73.8021 437.169 73.8021Z" fill="#38861C" transform="matrix(1.02752 0 0 1 1540 563)"/><path d="M62.482 300.885 96.5444 300.885 96.5444 471.198 62.482 471.198Z" fill="#38861C" transform="matrix(1.02752 0 0 1 1540 563)"/><path d="M210.086 334.948C216.357 334.948 221.44 340.031 221.44 346.302L221.44 425.781C221.44 432.052 216.357 437.135 210.086 437.135L176.024 437.135C169.753 437.135 164.669 432.052 164.669 425.781L164.669 346.302C164.669 340.031 169.753 334.948 176.024 334.948L210.086 334.948M210.086 300.885 176.024 300.885C150.941 300.885 130.607 321.219 130.607 346.302L130.607 425.781C130.607 450.864 150.941 471.198 176.024 471.198L210.086 471.198C235.169 471.198 255.503 450.864 255.503 425.781L255.503 346.302C255.503 321.219 235.169 300.885 210.086 300.885Z" fill="#38861C" transform="matrix(1.02752 0 0 1 1540 563)"/><path d="M289.565 300.885 323.628 300.885 323.628 471.198 289.565 471.198Z" fill="#38861C" transform="matrix(1.02752 0 0 1 1540 563)"/><path d="M437.169 334.948C443.44 334.948 448.523 340.031 448.523 346.302L448.523 425.781C448.523 432.052 443.44 437.135 437.169 437.135L403.107 437.135C396.836 437.135 391.753 432.052 391.753 425.781L391.753 346.302C391.753 340.031 396.836 334.948 403.107 334.948L437.169 334.948M437.169 300.885 403.107 300.885C378.024 300.885 357.69 321.219 357.69 346.302L357.69 425.781C357.69 450.864 378.024 471.198 403.107 471.198L437.169 471.198C462.252 471.198 482.586 450.864 482.586 425.781L482.586 346.302C482.586 321.219 462.252 300.885 437.169 300.885Z" fill="#38861C" transform="matrix(1.02752 0 0 1 1540 563)"/></g></g></g><g><g><g><path d="M62.482 73.8021 96.5445 73.8021 96.5445 244.115 62.482 244.115Z" fill="#38861C" transform="matrix(1.02752 0 0 1 2060 559)"/><path d="M210.086 107.865C216.357 107.865 221.44 112.948 221.44 119.219L221.44 198.698C221.44 204.969 216.357 210.052 210.086 210.052L176.024 210.052C169.753 210.052 164.67 204.969 164.67 198.698L164.67 119.219C164.67 112.948 169.753 107.865 176.024 107.865L210.086 107.865M210.086 73.8021 176.024 73.8021C150.941 73.8021 130.607 94.1357 130.607 119.219L130.607 198.698C130.607 223.781 150.941 244.115 176.024 244.115L210.086 244.115C235.169 244.115 255.503 223.781 255.503 198.698L255.503 119.219C255.503 94.1357 235.169 73.8021 210.086 73.8021Z" fill="#38861C" transform="matrix(1.02752 0 0 1 2060 559)"/><path d="M289.565 73.8021 323.628 73.8021 323.628 244.115 289.565 244.115Z" fill="#38861C" transform="matrix(1.02752 0 0 1 2060 559)"/><path d="M437.17 107.865C443.441 107.865 448.524 112.948 448.524 119.219L448.524 198.698C448.524 204.969 443.441 210.052 437.17 210.052L403.107 210.052C396.836 210.052 391.753 204.969 391.753 198.698L391.753 119.219C391.753 112.948 396.836 107.865 403.107 107.865L437.17 107.865M437.17 73.8021 403.107 73.8021C378.024 73.8021 357.69 94.1357 357.69 119.219L357.69 198.698C357.69 223.781 378.024 244.115 403.107 244.115L437.17 244.115C462.253 244.115 482.586 223.781 482.586 198.698L482.586 119.219C482.586 94.1357 462.253 73.8021 437.17 73.8021Z" fill="#38861C" transform="matrix(1.02752 0 0 1 2060 559)"/><path d="M62.482 300.886 96.5445 300.886 96.5445 471.198 62.482 471.198Z" fill="#38861C" transform="matrix(1.02752 0 0 1 2060 559)"/><path d="M210.086 334.948C216.357 334.948 221.44 340.031 221.44 346.302L221.44 425.781C221.44 432.052 216.357 437.136 210.086 437.136L176.024 437.136C169.753 437.136 164.67 432.052 164.67 425.781L164.67 346.302C164.67 340.031 169.753 334.948 176.024 334.948L210.086 334.948M210.086 300.886 176.024 300.886C150.941 300.886 130.607 321.219 130.607 346.302L130.607 425.781C130.607 450.864 150.941 471.198 176.024 471.198L210.086 471.198C235.169 471.198 255.503 450.864 255.503 425.781L255.503 346.302C255.503 321.219 235.169 300.886 210.086 300.886Z" fill="#38861C" transform="matrix(1.02752 0 0 1 2060 559)"/><path d="M289.565 300.886 323.628 300.886 323.628 471.198 289.565 471.198Z" fill="#38861C" transform="matrix(1.02752 0 0 1 2060 559)"/><path d="M437.17 334.948C443.441 334.948 448.524 340.031 448.524 346.302L448.524 425.781C448.524 432.052 443.441 437.136 437.17 437.136L403.107 437.136C396.836 437.136 391.753 432.052 391.753 425.781L391.753 346.302C391.753 340.031 396.836 334.948 403.107 334.948L437.17 334.948M437.17 300.886 403.107 300.886C378.024 300.886 357.69 321.219 357.69 346.302L357.69 425.781C357.69 450.864 378.024 471.198 403.107 471.198L437.17 471.198C462.253 471.198 482.586 450.864 482.586 425.781L482.586 346.302C482.586 321.219 462.253 300.886 437.17 300.886Z" fill="#38861C" transform="matrix(1.02752 0 0 1 2060 559)"/></g></g></g><g><g><g><path d="M62.482 73.8021 96.5444 73.8021 96.5444 244.115 62.482 244.115Z" fill="#38861C" transform="matrix(1.02752 0 0 1 2576 563)"/><path d="M210.086 107.865C216.357 107.865 221.44 112.948 221.44 119.219L221.44 198.698C221.44 204.969 216.357 210.052 210.086 210.052L176.024 210.052C169.753 210.052 164.669 204.969 164.669 198.698L164.669 119.219C164.669 112.948 169.753 107.865 176.024 107.865L210.086 107.865M210.086 73.8021 176.024 73.8021C150.941 73.8021 130.607 94.1357 130.607 119.219L130.607 198.698C130.607 223.781 150.941 244.115 176.024 244.115L210.086 244.115C235.169 244.115 255.503 223.781 255.503 198.698L255.503 119.219C255.503 94.1357 235.169 73.8021 210.086 73.8021Z" fill="#38861C" transform="matrix(1.02752 0 0 1 2576 563)"/><path d="M289.565 73.8021 323.628 73.8021 323.628 244.115 289.565 244.115Z" fill="#38861C" transform="matrix(1.02752 0 0 1 2576 563)"/><path d="M437.169 107.865C443.44 107.865 448.523 112.948 448.523 119.219L448.523 198.698C448.523 204.969 443.44 210.052 437.169 210.052L403.107 210.052C396.836 210.052 391.753 204.969 391.753 198.698L391.753 119.219C391.753 112.948 396.836 107.865 403.107 107.865L437.169 107.865M437.169 73.8021 403.107 73.8021C378.024 73.8021 357.69 94.1357 357.69 119.219L357.69 198.698C357.69 223.781 378.024 244.115 403.107 244.115L437.169 244.115C462.252 244.115 482.586 223.781 482.586 198.698L482.586 119.219C482.586 94.1357 462.252 73.8021 437.169 73.8021Z" fill="#38861C" transform="matrix(1.02752 0 0 1 2576 563)"/><path d="M62.482 300.885 96.5444 300.885 96.5444 471.198 62.482 471.198Z" fill="#38861C" transform="matrix(1.02752 0 0 1 2576 563)"/><path d="M210.086 334.948C216.357 334.948 221.44 340.031 221.44 346.302L221.44 425.781C221.44 432.052 216.357 437.135 210.086 437.135L176.024 437.135C169.753 437.135 164.669 432.052 164.669 425.781L164.669 346.302C164.669 340.031 169.753 334.948 176.024 334.948L210.086 334.948M210.086 300.885 176.024 300.885C150.941 300.885 130.607 321.219 130.607 346.302L130.607 425.781C130.607 450.864 150.941 471.198 176.024 471.198L210.086 471.198C235.169 471.198 255.503 450.864 255.503 425.781L255.503 346.302C255.503 321.219 235.169 300.885 210.086 300.885Z" fill="#38861C" transform="matrix(1.02752 0 0 1 2576 563)"/><path d="M289.565 300.885 323.628 300.885 323.628 471.198 289.565 471.198Z" fill="#38861C" transform="matrix(1.02752 0 0 1 2576 563)"/><path d="M437.169 334.948C443.44 334.948 448.523 340.031 448.523 346.302L448.523 425.781C448.523 432.052 443.44 437.135 437.169 437.135L403.107 437.135C396.836 437.135 391.753 432.052 391.753 425.781L391.753 346.302C391.753 340.031 396.836 334.948 403.107 334.948L437.169 334.948M437.169 300.885 403.107 300.885C378.024 300.885 357.69 321.219 357.69 346.302L357.69 425.781C357.69 450.864 378.024 471.198 403.107 471.198L437.169 471.198C462.252 471.198 482.586 450.864 482.586 425.781L482.586 346.302C482.586 321.219 462.252 300.885 437.169 300.885Z" fill="#38861C" transform="matrix(1.02752 0 0 1 2576 563)"/></g></g></g><g><g><g><path d="M62.482 73.8021 96.5445 73.8021 96.5445 244.115 62.482 244.115Z" fill="#38861C" transform="matrix(1.02752 0 0 1 3096 559)"/><path d="M210.086 107.865C216.357 107.865 221.44 112.948 221.44 119.219L221.44 198.698C221.44 204.969 216.357 210.052 210.086 210.052L176.024 210.052C169.753 210.052 164.67 204.969 164.67 198.698L164.67 119.219C164.67 112.948 169.753 107.865 176.024 107.865L210.086 107.865M210.086 73.8021 176.024 73.8021C150.941 73.8021 130.607 94.1357 130.607 119.219L130.607 198.698C130.607 223.781 150.941 244.115 176.024 244.115L210.086 244.115C235.169 244.115 255.503 223.781 255.503 198.698L255.503 119.219C255.503 94.1357 235.169 73.8021 210.086 73.8021Z" fill="#38861C" transform="matrix(1.02752 0 0 1 3096 559)"/><path d="M289.565 73.8021 323.628 73.8021 323.628 244.115 289.565 244.115Z" fill="#38861C" transform="matrix(1.02752 0 0 1 3096 559)"/><path d="M437.17 107.865C443.441 107.865 448.524 112.948 448.524 119.219L448.524 198.698C448.524 204.969 443.441 210.052 437.17 210.052L403.107 210.052C396.836 210.052 391.753 204.969 391.753 198.698L391.753 119.219C391.753 112.948 396.836 107.865 403.107 107.865L437.17 107.865M437.17 73.8021 403.107 73.8021C378.024 73.8021 357.69 94.1357 357.69 119.219L357.69 198.698C357.69 223.781 378.024 244.115 403.107 244.115L437.17 244.115C462.253 244.115 482.586 223.781 482.586 198.698L482.586 119.219C482.586 94.1357 462.253 73.8021 437.17 73.8021Z" fill="#38861C" transform="matrix(1.02752 0 0 1 3096 559)"/><path d="M62.482 300.886 96.5445 300.886 96.5445 471.198 62.482 471.198Z" fill="#38861C" transform="matrix(1.02752 0 0 1 3096 559)"/><path d="M210.086 334.948C216.357 334.948 221.44 340.031 221.44 346.302L221.44 425.781C221.44 432.052 216.357 437.136 210.086 437.136L176.024 437.136C169.753 437.136 164.67 432.052 164.67 425.781L164.67 346.302C164.67 340.031 169.753 334.948 176.024 334.948L210.086 334.948M210.086 300.886 176.024 300.886C150.941 300.886 130.607 321.219 130.607 346.302L130.607 425.781C130.607 450.864 150.941 471.198 176.024 471.198L210.086 471.198C235.169 471.198 255.503 450.864 255.503 425.781L255.503 346.302C255.503 321.219 235.169 300.886 210.086 300.886Z" fill="#38861C" transform="matrix(1.02752 0 0 1 3096 559)"/><path d="M289.565 300.886 323.628 300.886 323.628 471.198 289.565 471.198Z" fill="#38861C" transform="matrix(1.02752 0 0 1 3096 559)"/><path d="M437.17 334.948C443.441 334.948 448.524 340.031 448.524 346.302L448.524 425.781C448.524 432.052 443.441 437.136 437.17 437.136L403.107 437.136C396.836 437.136 391.753 432.052 391.753 425.781L391.753 346.302C391.753 340.031 396.836 334.948 403.107 334.948L437.17 334.948M437.17 300.886 403.107 300.886C378.024 300.886 357.69 321.219 357.69 346.302L357.69 425.781C357.69 450.864 378.024 471.198 403.107 471.198L437.17 471.198C462.253 471.198 482.586 450.864 482.586 425.781L482.586 346.302C482.586 321.219 462.253 300.886 437.17 300.886Z" fill="#38861C" transform="matrix(1.02752 0 0 1 3096 559)"/></g></g></g><path d="M3394 1085 3429 1085 3429 1255 3394 1255Z" fill="#38861C" fill-rule="evenodd"/><path d="M3545.45 1119C3551.88 1119 3557.09 1124.07 3557.09 1130.33L3557.09 1209.67C3557.09 1215.93 3551.88 1221 3545.45 1221L3510.55 1221C3504.12 1221 3498.91 1215.93 3498.91 1209.67L3498.91 1130.33C3498.91 1124.07 3504.12 1119 3510.55 1119L3545.45 1119M3545.45 1085 3510.55 1085C3484.84 1085 3464 1105.3 3464 1130.33L3464 1209.67C3464 1234.7 3484.84 1255 3510.55 1255L3545.45 1255C3571.16 1255 3592 1234.7 3592 1209.67L3592 1130.33C3592 1105.3 3571.16 1085 3545.45 1085Z" fill="#38861C" fill-rule="evenodd"/><path d="M3394 1312 3429 1312 3429 1482 3394 1482Z" fill="#38861C" fill-rule="evenodd"/><path d="M3545.45 1346C3551.88 1346 3557.09 1351.07 3557.09 1357.33L3557.09 1436.67C3557.09 1442.93 3551.88 1448 3545.45 1448L3510.55 1448C3504.12 1448 3498.91 1442.93 3498.91 1436.67L3498.91 1357.33C3498.91 1351.07 3504.12 1346 3510.55 1346L3545.45 1346M3545.45 1312 3510.55 1312C3484.84 1312 3464 1332.3 3464 1357.33L3464 1436.67C3464 1461.7 3484.84 1482 3510.55 1482L3545.45 1482C3571.16 1482 3592 1461.7 3592 1436.67L3592 1357.33C3592 1332.3 3571.16 1312 3545.45 1312Z" fill="#38861C" fill-rule="evenodd"/><text fill="#FFFFFF" font-family="Segoe UI Black,Segoe UI Black_MSFontService,sans-serif" font-weight="900" font-size="367" transform="matrix(1 0 0 1 1816.25 874)">SMIA PE</text><rect x="2445" y="347" width="260" height="92.0001" fill="#38861C"/><rect x="2445" y="252" width="260" height="61.0002" fill="#44A222"/><rect x="2445" y="188" width="260" height="29.9999" fill="#50C228"/><rect x="2445" y="134" width="260" height="14.9998" fill="#73DA4E"/><rect x="2445" y="87" width="260" height="8.99993" fill="#73DA4E"/><path d="M1604 1532 1639 1532 1639 1702 1604 1702Z" fill="#38861C" fill-rule="evenodd"/><path d="M1756.09 1566C1762.57 1566 1767.82 1571.07 1767.82 1577.33L1767.82 1656.67C1767.82 1662.93 1762.57 1668 1756.09 1668L1720.91 1668C1714.43 1668 1709.18 1662.93 1709.18 1656.67L1709.18 1577.33C1709.18 1571.07 1714.43 1566 1720.91 1566L1756.09 1566M1756.09 1532 1720.91 1532C1695 1532 1674 1552.3 1674 1577.33L1674 1656.67C1674 1681.7 1695 1702 1720.91 1702L1756.09 1702C1782 1702 1803 1681.7 1803 1656.67L1803 1577.33C1803 1552.3 1782 1532 1756.09 1532Z" fill="#38861C" fill-rule="evenodd"/><path d="M3329 1536 3330.58 1536.31C3347.28 1543.22 3359 1559.38 3359 1578.21L3359 1657.79C3359 1676.62 3347.28 1692.78 3330.58 1699.69L3329 1700Z" fill="#38861C" fill-rule="evenodd"/><path d="M3394 1532 3429 1532 3429 1703 3394 1703Z" fill="#38861C" fill-rule="evenodd"/><path d="M3545.45 1566.2C3551.88 1566.2 3557.09 1571.3 3557.09 1577.6L3557.09 1657.4C3557.09 1663.7 3551.88 1668.8 3545.45 1668.8L3510.55 1668.8C3504.12 1668.8 3498.91 1663.7 3498.91 1657.4L3498.91 1577.6C3498.91 1571.3 3504.12 1566.2 3510.55 1566.2L3545.45 1566.2M3545.45 1532 3510.55 1532C3484.84 1532 3464 1552.42 3464 1577.6L3464 1657.4C3464 1682.58 3484.84 1703 3510.55 1703L3545.45 1703C3571.16 1703 3592 1682.58 3592 1657.4L3592 1577.6C3592 1552.42 3571.16 1532 3545.45 1532Z" fill="#38861C" fill-rule="evenodd"/><path d="M3329 1763 3330.58 1763.31C3347.28 1770.22 3359 1786.38 3359 1805.21L3359 1851 3329 1851Z" fill="#38861C" fill-rule="evenodd"/><path d="M3276.22 1088 3311.27 1088C3337.08 1088 3358 1108.32 3358 1133.4L3358 1212.84C3358 1231.64 3346.23 1247.78 3329.46 1254.67L3327.77 1255 3327.77 1197.34 3322.95 1192.65 3322.95 1133.4C3322.95 1127.13 3317.72 1122.05 3311.27 1122.05L3276.22 1122.05C3269.77 1122.05 3264.54 1127.13 3264.54 1133.4L3264.54 1135.91 3239 1111.1 3243.18 1101.3C3251.64 1093.08 3263.32 1088 3276.22 1088Z" fill="#38861C" fill-rule="evenodd"/><path d="M1839 1083 1874 1083 1874 1150.97 1839 1185Z" fill="#38861C" fill-rule="evenodd"/><path d="M1603 1766 1638 1766 1638 1851 1603 1851Z" fill="#38861C" fill-rule="evenodd"/><path d="M1719.55 1766 1754.45 1766C1780.16 1766 1801 1786.3 1801 1811.33L1801 1851 1766.09 1851 1766.09 1811.33C1766.09 1805.07 1760.88 1800 1754.45 1800L1719.55 1800C1713.12 1800 1707.91 1805.07 1707.91 1811.33L1707.91 1851 1673 1851 1673 1811.33C1673 1786.3 1693.84 1766 1719.55 1766Z" fill="#38861C" fill-rule="evenodd"/><path d="M3394 1757 3429 1757 3429 1851 3394 1851Z" fill="#38861C" fill-rule="evenodd"/><path d="M3510.55 1757 3545.45 1757C3571.16 1757 3592 1777.38 3592 1802.52L3592 1849.35 3583.65 1851 3557.09 1851 3557.09 1802.52C3557.09 1796.24 3551.88 1791.14 3545.45 1791.14L3510.55 1791.14C3504.12 1791.14 3498.91 1796.24 3498.91 1802.52L3498.91 1851 3464 1851 3464 1802.52C3464 1777.38 3484.84 1757 3510.55 1757Z" fill="#38861C" fill-rule="evenodd"/><path d="M3329 1318 3330.64 1318.31C3347.89 1325.22 3360 1341.38 3360 1360.21L3360 1439.79C3360 1458.62 3347.89 1474.78 3330.64 1481.69L3329 1482Z" fill="#38861C" fill-rule="evenodd"/></g></svg>